<?xml version="1.0" standalone="no"?>
<!DOCTYPE svg PUBLIC "-//W3C//DTD SVG 1.1//EN" "http://www.w3.org/Graphics/SVG/1.1/DTD/svg11.dtd">
<svg xmlns="http://www.w3.org/2000/svg">
<metadata>Generated by Fontastic.me</metadata>
<defs>
<font id="teriz" horiz-adv-x="512">
<font-face font-family="teriz" units-per-em="512" ascent="480" descent="-32"/>
<missing-glyph horiz-adv-x="512" />

<glyph glyph-name="access" unicode="&#97;" d="M321 340c0 36-28 64-64 64-35 0-63-28-63-64 0-20 9-38 24-49l-24-121 127 0-24 121c15 11 24 29 24 49z m-37-33l-10-8 2-11 19-95-75 0 19 95 2 12-10 8c-10 8-16 20-16 33 0 23 19 42 42 42 24 0 43-19 43-43 0-12-6-24-16-33z m60 181l-45 0 0 24 45 0z m167-62l0-72c0-161-102-303-255-354-153 51-255 193-255 354l0 72c34 33 53 52 86 86l171 0 0-24-162 0-71-71 0-63c0-149 92-282 233-332 140 50 233 183 233 332l0 63-72 71-34 0 0 24 43 0c33-34 53-53 83-86z"/>
<glyph glyph-name="active" unicode="&#98;" d="M426 469c0 23-18 43-42 43l-254 0c-24 0-44-20-44-43l0-428c0-23 20-41 44-41l254 0c24 0 42 18 42 41z m-20-426c0-12-10-22-21-22l-256 0c-12 0-22 10-22 22l0 427c0 12 10 22 22 22l256 0c11 0 21-10 21-22z m-150 319c-59 0-107-48-107-107 0-59 48-107 107-107 59 0 107 48 107 107 0 59-48 107-107 107z m0-192c-47 0-85 38-85 85 0 47 38 86 85 86 25 0 48-12 63-29l-63-63-35 35-15-15 50-50 76 75c6-12 10-25 10-39 0-47-39-85-86-85z m44 256l-86 0 0 21 86 0z m-23-342c0-11-9-21-21-21-12 0-21 10-21 21 0 12 9 22 21 22 12 0 21-10 21-22z m179 270l-15 15 42 43 15-15z m-9-96l45 0 0-25-45 0z m9-102l42-43-15-15-42 43z m-427 256l43-43-16-15-42 43z m34-179l-42 0 0 25 42 0z m-7-77l16-15-43-43-15 15z"/>
<glyph glyph-name="add" unicode="&#99;" d="M511 385l-128 127-318-318-64-191 191 63z m-357-244l219 218 41-41-219-218z m327 244l-52-52-98 97 52 52z m-165 30l42-41-219-218-41 41z m-281-379l16 50 34-33z m72 24l-48 49 24 73 97-97z m66-35l252 0 0-25-252 0z m296 0l42 0 0-25-42 0z"/>
<glyph glyph-name="add-new" unicode="&#100;" d="M193 151l84 0 235 234-85 85-234-235z m21 69l48-48-48 0z m11 18l156 156 55-55-156-156z m257 146l-31-30-55 55 30 31z m-97-341c0-12-11-19-23-19l-214 0 0 104c0 12-9 23-20 23l-107 0 0 319c0 12 9 22 21 22l278 0 0 20-278 0c-23 0-42-19-42-42l0-342c49-50 77-77 128-128l234 0c24 0 44 19 44 43l0 149-21 0z m-355 88l97 0 0-101z m225 254l-169 0 0 21 169 0z m-169-41l128 0 0-21-128 0z m320 148l-45 0 0 20 45 0z"/>
<glyph glyph-name="administration" unicode="&#101;" d="M341 170c-36 0-64-28-64-64 0-35 28-64 64-64 35 0 64 29 64 64 0 36-29 64-64 64z m0-106c-24 0-43 19-43 42 0 24 19 43 43 43 23 0 42-19 42-43 0-23-19-42-42-42z m0 149c-94 0-171-107-171-107 0 0 15-19 39-42l-166 0c-12 0-21 9-21 21l0 108 171 0 0 21-171 0 0 127 339 0 0-86 24 0 0 213c0 24-21 44-44 44l-298 0c-24 0-42-20-42-44l0-383c0-23 18-42 42-42l190 0c30-20 67-43 108-43 94 0 170 106 170 106 0 0-76 107-170 107z m-319 255c0 12 9 20 21 20l298 0c11 0 20-8 20-20l0-107-339 0z m319-447c-64 0-121 59-143 85 22 27 79 85 143 85 64 0 121-58 143-85-22-26-79-85-143-85z m-256 426l63 0 0-20-61 0 0-21-24 0 0 41z m-22-148l85 0 0-23-61 0 0-21-24 0z m0-150l85 0 0-21-61 0 0-20-24 0z m130 298l41 0 0-20-41 0z m0-171l0 23 41 0 0-23z"/>
<glyph glyph-name="advice" unicode="&#102;" d="M243 155l-72-69-73 69c-58-28-98-86-98-155l341 0c0 69-40 127-98 155z m-220-130c6 41 33 82 72 105l76-73 76 74c38-24 65-65 71-106z m149 125c48 0 86 38 86 85l0 43-24 0 0-43c0-35-28-64-63-64-36 0-64 29-64 64l0 43 64 0c47 0 85 38 85 87l-128 0c-24 0-42-21-42-45l0-85c0-47 39-85 86-85z m-65 170c0 12 9 24 21 24l103 0c-9-28-33-45-60-45l-64 0z m319 86l-127 0 0 24 127 0z m-127-41l127 0 0-21-127 0z m-65 41l-20 0 0 63c0 24 18 43 42 43l213 0c24 0 43-17 43-41l-22 0c0 10-9 21-21 21l-213 0c-12 0-22-11-22-23z m257 24l21 0 0-45-21 0z m0-86l21 0 0-45c0-24-19-41-43-41l-64 0-85-66 0 66-21 0 0 20 45 0 0-43 54 43 71 0c12 0 22 9 22 21z"/>
<glyph glyph-name="analysis" unicode="&#103;" d="M405 511c-59 0-106-48-106-107 0-58 47-106 106-106 59 0 107 48 107 106 0 59-48 107-107 107z m0-192c-47 0-85 38-85 85 0 48 38 86 85 86 26 0 48-11 64-29l-64-63-35 35-15-15 50-50 76 76c6-12 10-25 10-40 0-47-39-85-86-85z m-147-211l-65 0 0 20 65 0z m168 61l-405 0 0 235c0 12 10 23 21 23l130 0 0 21-130 0c-23 0-42-20-42-44l0-298c0-24 19-43 42-43l130 0 0-41-45 0 0-21 193 0 0 21-41 0 0 41 126 0c24 0 42 19 42 43l0 149-21 0z m-168-147l-65 0 0 41 65 0z m168 84c0-12-9-22-21-22l-363 0c-11 0-21 10-21 22l0 43 405 0z m-340 108l0 85 21 0 0-85z m66 0l0 127 20 0 0-127z m82 0l-20 0 0 41 20 0z m65 0l-20 0 0 85 20 0z m65 41l0-41-20 0 0 41z m-106 172l-44 0 0 21 44 0z"/>
<glyph glyph-name="animals" unicode="&#104;" d="M250 305l-30-30-15 15 30 31z m177 122c0 47-39 85-86 85-47 0-85-38-85-85 0-24 9-45 25-61l-16-15 15-15 31 30-15 15c-12 13-19 29-19 46 0 35 29 64 64 64 36 0 64-29 64-64l0-22 22 0c35 0 64-28 64-64 0-35-29-64-64-64-18 0-34 7-46 19l-15 15-165-165 15-15c12-12 19-28 19-46 0-35-29-64-64-64-36 0-64 29-64 64l0 22-22 0c-35 0-64 28-64 64 0 35 29 64 64 64 17 0 33-7 46-19l15-15 44 44-15 15-29-29c-16 16-37 25-61 25-47 0-85-38-85-85 0-47 38-86 85-86 0-47 39-85 86-85 47 0 85 38 85 85 0 24-10 45-25 61l135 135c16-15 37-25 61-25 47 0 85 38 85 85 0 47-38 86-85 86z"/>
<glyph glyph-name="approved" unicode="&#105;" d="M320 341l-127 0 0 20 127 0z m-233-65l106 0 0 23-106 0z m233 23l-86 0 0-23 86 0z m-233-85l191 0 0 20-191 0z m307-214c-36 0-69 23-90 43l-282 0c-21 0-21 9-21 21l0 319c44 50 77 85 127 129l256 0c11 0 21-11 21-23l0-128-20 0 0 127-233 0 0-127-131 0 0-297 269 0c-8 23-13 34-13 53 0 65 53 117 117 117 65 0 117-52 117-117 0-64-52-117-117-117z m-267 386l0 95-96-95z m267-173c-53 0-95-43-95-96 0-53 42-96 95-96 53 0 96 43 96 96 0 53-43 96-96 96z m-10-105l-35 35-15-15 50-50 71 71-15 15z m-170 41l0 21-127 0 0-21z m171 127l20 0 0 44-20 0z"/>
<glyph glyph-name="archive" unicode="&#106;" d="M237 406l41 0 0-21-41 0z m0-87l41 0 0 21-41 0z m-130 66l-42 0 0-20 42 0z m-42-86l42 0 0 20-42 0z m385 86l-45 0 0-20 45 0z m-45-86l45 0 0 20-45 0z m86 151l21 0c0 21-19 42-43 42l-84 0 0-21 84 0c12 0 22-11 22-21z m0-85l20 0 0 41-20 0z m0-46l20 0 0-277c0-24-18-42-42-42l-426 0c-24 0-43 18-43 42l0 405c0 24 19 45 43 45l88 0 0-21-88 0c-12 0-19-12-19-24l0-254 107 0 0-21-107 0 0-45 107 0 0-20-107 0 0-65c0-12 7-20 19-20l129 0 0 446c0 24 18 44 42 44l85 0c23 0 45-20 45-44l0-446 125 0c12 0 22 8 22 20l0 65-106 0 0 20 106 0 0 45-106 0 0 21 106 0z m-298-126l130 0 0 275c0 12-12 24-24 24l-85 0c-12 0-21-12-21-24z m0-66l130 0 0 45-130 0z m130-105l0 85-130 0 0-85z"/>
<glyph glyph-name="armchair" unicode="&#107;" d="M427 299l0 128c0 47-39 85-86 85l-170 0c-47 0-86-38-86-85l0-128c-47 0-85-38-85-86l0-85c0-47 38-85 85-85l0-43 22 0 0 43 298 0 0-43 22 0 0 43c46 0 85 38 85 85l0 85c0 48-38 86-85 86z m-320 128c0 35 28 64 64 64l170 0c36 0 64-29 64-64l0-134c-12-8-21-21-21-37l0-85-256 0 0 42 128 0 0 22-128 0 0 21c0 16-9 29-21 37z m384-299c0-35-29-64-64-64l-342 0c-35 0-64 29-64 64l0 85c0 36 29 64 64 64 12 0 22-9 22-21l0-85c0-12 9-22 21-22l256 0c12 0 21 10 21 22l0 85c0 12 10 21 22 21 35 0 64-28 64-64z m-150 85l-42 0 0 22 42 0z"/>
<glyph glyph-name="attention" unicode="&#108;" d="M194 128c0-35 28-64 63-64 35 0 64 29 64 64 0 35-29 63-64 63-35 0-63-28-63-63z m106 0c0-24-19-43-43-43-23 0-42 19-42 43 0 23 19 42 42 42 24 0 43-19 43-42z m-106 321l21-215 85 0 21 215z m86-195l-46 0-17 171 80 0z m232 128l0-42-24 0 0 34-112 116-237 0-115-116 0-237 115-114 237 0 112 114 0 76 24 0 0-85c-51-50-78-75-127-126l-255 0c-50 51-79 76-130 126l0 254c51 50 80 81 130 128l255 0c49-47 76-78 127-128z m-24-83l24 0 0-45-24 0z"/>
<glyph glyph-name="baby-food" unicode="&#109;" d="M384 341l-2 0c-9 42-42 75-83 84l0 44c0 24-20 43-43 43-24 0-43-19-43-43l0-44c-42-9-74-42-83-84l-2 0c-24 0-43-19-43-42 0-24 19-43 43-43l0-213c0-24 19-43 43-43l170 0c24 0 43 19 43 43l0 213c23 0 43 19 43 43 0 23-20 42-43 42z m-167 63l18 3 0 62c0 12 9 22 21 22 12 0 21-10 21-22l0-62 17-3c33-7 58-32 66-63l-208 0c8 31 33 56 65 63z m146-361c0-12-10-22-22-22l-170 0c-12 0-22 10-22 22l0 149 107 0 0 21-107 0 0 43 214 0z m21 234l-256 0c-12 0-21 10-21 22 0 11 9 21 21 21l256 0c12 0 21-10 21-21 0-12-9-22-21-22z m-43-85l-42 0 0 21 42 0z m0-64l-42 0 0 21 42 0z m0-64l-42 0 0 21 42 0z"/>
<glyph glyph-name="backpack" unicode="&#110;" d="M128 341l256 0 0-21-43 0 0-43-21 0 0 43-192 0z m384-106l0-171c0-35-29-64-64-64l-384 0c-35 0-64 29-64 64l0 171c0 35 29 64 64 64l0 21c0 106 86 192 192 192 106 0 192-86 192-192l0-21c35 0 64-29 64-64z m-448 42c-24 0-43-19-43-42l0-171c0-23 19-43 43-43z m363 43c0 94-77 171-171 171-94 0-171-77-171-171l0-299 43 0 0 192c0 12 10 22 21 22l214 0c11 0 21-10 21-22l0-21-21 0 0 21-214 0 0-192 214 0 0 43 21 0 0-43 43 0z m64-85c0 23-20 42-43 42l0-256c23 0 43 20 43 43z m-128-128l21 0 0 42-21 0z"/>
<glyph glyph-name="bag" unicode="&#111;" d="M427 387c-2 10-11 18-22 18l-42 0c0 59-48 107-107 107-59 0-107-48-107-107l-42 0c-11 0-20-8-21-18 0 0-43-363-43-363-2-12 8-24 21-24 0 0 384 0 384 0 12 0 23 11 21 24z m-171 104c47 0 85-39 85-86l-170 0c0 47 38 86 85 86z m-192-470l10 86 225 0 0 21-222 0 30 256 42 0 0-43 22 0 0 43 170 0 0-43 22 0 0 43 42 0 43-363z m277 107l43 0 0-21-43 0z"/>
<glyph glyph-name="bank" unicode="&#112;" d="M127 22l45 0 0-21-45 0z m-127 340l256 149 256-149c0-23-19-42-43-42l-426 0c-24 0-43 19-43 42z m24-11c4-6 11-10 19-10l426 0c8 0 15 4 19 10l-232 136z m446-329l42 0 0-21-298 0 0 21 236 0 0 44-384 0 0-44 20 0 0-21-86 0 0 21 42 0 0 65 44 0 0 191 86 0 0-191 42 0 0 191 85 0 0-191 42 0 0 191 85 0 0-191 44 0z m-318 65l0 171-45 0 0-171z m127 0l0 171-45 0 0-171z m126 0l0 171-41 0 0-171z"/>
<glyph glyph-name="basket" unicode="&#113;" d="M507 320c-4 5-10 8-16 8l-470 0c-6 0-12-3-16-8-4-4-6-11-5-17l43-277c2-10 10-18 21-18l384 0c10 0 19 8 21 18l43 277c1 6-1 13-5 17z m-59-291l-384 0-33 213 332 0 0 22-335 0-7 42 470 0z m-320 149l21 0 0-85-21 0z m213 0l22 0 0-85-22 0z m-106 0l21 0 0-85-21 0z m213 64l-43 0 0 22 43 0z m-69 107l-89 144 18 11 96-155z m-250 0l-24 0 77 154 19-9z"/>
<glyph glyph-name="benefits" unicode="&#114;" d="M248 264l15-15 75 75c15-19 24-42 24-67 0-59-47-107-106-107-59 0-107 48-107 107 0 58 48 106 107 106 13 0 25-3 36-7l16 17c-16 7-33 11-52 11-71 0-128-57-128-127 0-71 57-128 128-128 70 0 128 57 128 128 0 31-12 59-31 81l24 24 70 0 11 11c10-16 17-35 23-52l22 0c-6 24-16 47-29 69l37 37-35 35 22 21-16 15-21-21-36 35-64-64 0-70z m134 175l43 43 56-56-42-44-57 0z m128-163c1-6 1-13 1-20 0-8 0-14-1-21l-21 0c1 7 1 13 1 21 0 7 0 14-1 20z m-29-86l22 0c-28-109-128-190-247-190-141 0-255 115-255 256 0 141 114 256 255 256 37 0 73-8 105-23l-16-16c-28 11-58 18-89 18-129 0-234-106-234-235 0-129 105-235 234-235 107 0 197 74 225 169z"/>
<glyph glyph-name="bikini" unicode="&#115;" d="M427 427l-22 0 0 42 22 0z m85-278l0-106-256 42-256-42 0 106 85 103 0 217 22 0 0-192 149-128 149 128 0 107 22 0 0-132z m-21-7l-88 105-147-126-147 126-88-105 0-74 235 39 235-39z"/>
<glyph glyph-name="biography" unicode="&#116;" d="M433 469l15 15c12-8 22-18 31-29l-15-16c-9 12-19 22-31 30z m77-106c0-82-66-148-148-148-82 0-149 66-149 148 0 83 67 149 149 149 16 0 32-3 47-8l-18-17c-9 2-19 4-29 4-71 0-128-57-128-128 0-31 12-61 32-83 11 25 31 44 57 55-15 11-25 29-25 50 0 35 28 63 64 63 35 0 63-28 63-63 0-21-10-39-25-50 26-11 46-30 58-55 19 22 31 52 31 83 0 13-2 25-5 36l16 17c7-16 10-34 10-53z m-148-21c23 0 42 19 42 43 0 23-19 42-42 42-24 0-43-19-43-42 0-24 19-43 43-43z m0-106c30 0 57 11 79 28-11 33-42 57-79 57-37 0-68-24-80-57 22-17 50-28 80-28z m43-140l-73-71-310 0 0 423 172 0 0 20-192 0 0-468 338 0c34 34 52 54 85 88l0 83-20 0z m-235 286l-83 0 0-20 83 0z m-83-85l83 0 0 24-83 0z m0-61l127 0 0 20-127 0z m212-45l-129 0 0-20 129 0z m-212-84l147 0 0 23-147 0z m0 84l0-20 41 0 0 20z"/>
<glyph glyph-name="blazer" unicode="&#117;" d="M256 448l21 0 0-43-21 0z m256-149l0-235c0-12-10-21-21-21l-86 0 0-22c0-11-9-21-21-21l-256 0c-12 0-21 10-21 21l0 22-86 0c-11 0-21 9-21 21l0 235c0 94 76 170 171 170l0 22c0 11 9 21 21 21l128 0c12 0 21-10 21-21l0-22c94 0 171-76 171-170z m-128-17l-107-31 0-84 107 30z m-128-37l-128-37 0-84 128 37z m-128-224l128 0 0 117-128-36z m256 154l-107-31 0-123 107 0z m107 124c0 82-67 149-150 149l-21 0 0 43-128 0 0-43-21 0c-83 0-150-67-150-149l0-235 86 0 0 256 21 0 0-89 128 36 0 96 21 0 0-90 107 31 0 16 21 0 0-256 86 0z"/>
<glyph glyph-name="blouse" unicode="&#118;" d="M213 512l-42 0c-95 0-171-76-171-171l0-320c0-11 10-21 21-21l86 0c11 0 21 10 21 21l0 22 256 0 0-22c0-11 9-21 21-21l86 0c11 0 21 10 21 21l0 320c-171 0-299 42-299 171z m278-491l-86 0 0 256-21 0 0-213-256 0 0 43 128 0 0 21-128 0 0 149-21 0 0-256-86 0 0 320c0 83 67 150 150 150l22 0c11-109 111-167 298-171z m-150 86l-42 0 0 21 42 0z"/>
<glyph glyph-name="bookmarks" unicode="&#119;" d="M448 43c0-12-9-19-21-19l-279 0 0 468 66 0 0-193 84 64 84-64 0 193 45 0c12 0 22-11 22-21l21 0c0 24-19 41-43 41l-341 0c-24 0-44-19-44-42l0-427c0-24 20-43 44-43l341 0c24 0 41 19 41 43l0 301-20 0z m-86 449l0-150-64 48-64-48 0 150z m-276-468c-12 0-23 7-23 19l0 427c0 12 11 22 23 22l42 0 0-468z m362 406l20 0 0-45-20 0z"/>
<glyph glyph-name="books" unicode="&#120;" d="M427 512l-342 0c-23 0-42-19-42-43l0-426c0-24 19-43 42-43l342 0c23 0 42 19 42 43l0 426c0 24-19 43-42 43z m21-469c0-12-10-22-21-22l-342 0c-11 0-21 10-21 22l0 426c0 12 10 22 21 22l22 0 0-342 21 0 0 342 299 0c11 0 21-10 21-22z m-85 362l-171 0c-12 0-21-9-21-21l0-85c0-12 9-22 21-22l171 0c11 0 21 10 21 22l0 85c0 12-10 21-21 21z m0-106l-171 0 0 85 171 0z m-256-192l21 0 0-43-21 0z m64 64l128 0 0-22-128 0z m0 64l170 0 0-22-170 0z"/>
<glyph glyph-name="boots" unicode="&#121;" d="M427 171l-43 0c-71 0-128 57-128 128l-21 0c0-83 67-150 149-150l0-64-224 0c0 77-62 138-139 138l0 204 235 0 0 68c0 9-8 17-17 17l-222 0c-9 0-17-8-17-17l0-452c0-24 19-43 43-43l426 0c24 0 43 19 43 43l0 42c0 48-38 86-85 86z m-406 320l214 0 0-43-214 0z m118-406l-118 0 0 117c65 0 117-52 118-117z m352-42c0-12-10-22-22-22l-426 0c-12 0-22 10-22 22l0 22 470 0z m-86 42l0 64 22 0c35 0 64-28 64-64z m-170 299l21 0 0-43-21 0z"/>
<glyph glyph-name="box" unicode="&#122;" d="M476 400l-172 95-11-18 137-76-348 0 136 76-10 18-171-95c-21-3-37-20-37-42l0-299c0-23 19-42 43-42l426 0c24 0 43 19 43 42l0 299c0 21-16 39-36 42z m15-341c0-11-10-21-22-21l-426 0c-12 0-22 10-22 21l0 299c0 12 10 21 22 21l213 0 0-213 21 0 0 213 192 0c12 0 22-9 22-21z m-64 278l-86 0c-12 0-21-10-21-22l0-85c0-12 9-21 21-21l86 0c11 0 21 9 21 21l0 85c0 12-10 22-21 22z m0-107l-86 0 0 85 86 0z m-171-107l21 0 0-42-21 0z"/>
<glyph glyph-name="burger" unicode="&#65;" d="M491 250l0 49 21 0c0 118-96 213-213 213l-86 0c-118 0-213-95-213-213l21 0 0-49c-12-7-21-21-21-37l0-21c0-16 9-29 21-37l0-48-21 0 0-22c0-47 38-85 85-85l128 0 0 21-128 0c-35 0-64 29-64 64l128 0c0-23 19-42 43-42 24 0 43 19 43 42l85 0c0 0 0-40 0-40 0-24 18-45 43-45 23 0 42 19 42 43l0 42 86 0c0-35-29-64-64-64l0-21c47 0 85 38 85 85l0 22-21 0 0 48c12 8 21 21 21 37l0 21c0 16-9 30-21 37z m-278 241l86 0c98 0 180-75 190-171l-466 0c10 96 92 171 190 171z m-170-192l426 0 0-43-426 0z m426-192l-85 0 0-64c0-12-10-22-21-22-13 0-22 12-22 24l0 62-128 0 0-22c0-11-9-21-21-21-12 0-21 10-21 21l0 22-128 0 0 42 426 0z m22 85c0-12-10-21-22-21l-426 0c-12 0-22 9-22 21l0 21c0 12 10 22 22 22l426 0c12 0 22-10 22-22z m-256 256l42 0 0-21-42 0z m-150-43l43 0 0-21-43 0z m299 0l43 0 0-21-43 0z m-213 0l21 0 0-42-21 0z m149 0l21 0 0-42-21 0z m-64-384l43 0 0-21-43 0z"/>
<glyph glyph-name="calculator" unicode="&#66;" d="M224 342l-51 0 0-53c0-6-4-10-10-10-6 0-10 4-10 10l0 53-56 0c-6 0-11 4-11 10 0 6 5 10 11 10l56 0 0 55c0 5 4 10 10 10 6 0 10-5 10-10l0-55 51 0c6 0 11-4 11-10 0-6-5-10-11-10z m191-127l-106 0c-6 0-10-6-10-12 0-6 4-12 10-12l106 0c6 0 11 6 11 12 0 6-5 12-11 12z m0-85l-106 0c-6 0-10-6-10-12 0-6 4-12 10-12l106 0c6 0 11 6 11 12 0 6-5 12-11 12z m-106 212l106 0c6 0 11 4 11 10 0 6-5 10-11 10l-106 0c-6 0-10-4-10-10 0-6 4-10 10-10z m-88-120c-4 5-11 5-15 0l-45-45-46 45c-4 5-11 5-15 0-4-4-4-10 0-15l46-45-46-46c-4-4-4-11 0-15 2-2 5-3 8-3 2 0 5 1 7 3l46 46 45-46c2-2 5-3 8-3 2 0 5 1 7 3 4 4 4 11 0 15l-45 46 45 45c4 5 4 11 0 15z m204 290l0-21c38 0 65-29 65-64l0-339c0-35-29-63-64-63l-340 0c-35 0-64 28-64 63l0 339c0 35 29 62 64 62l213 0 0 20-213 0c-46 0-84-35-84-82l0-339c0-47 38-88 84-88l340 0c47 0 84 41 84 88l0 339c0 47-37 85-85 85z m-41-3l-44 0 0-20 44 0z"/>
<glyph glyph-name="calendar" unicode="&#67;" d="M171 252c0 12-9 23-21 23l-43 0c-12 0-23-11-23-23l0-43c0-12 11-20 23-20l43 0c12 0 21 8 21 20z m-22-39l-44 0 0 41 44 0z m22-87c0 11-9 22-21 22l-43 0c-12 0-23-11-23-22l0-44c0-12 11-20 23-20l43 0c12 0 21 8 21 20z m-22-40l-44 0 0 41 44 0z m149 166c0 12-9 23-20 23l-44 0c-12 0-22-11-22-23l0-43c0-12 10-20 22-20l44 0c11 0 20 8 20 20z m-21-39l-41 0 0 41 41 0z m21-87c0 11-9 22-20 22l-44 0c-12 0-22-11-22-22l0-44c0-12 10-20 22-20l44 0c11 0 20 8 20 20z m-21-40l-41 0 0 41 41 0z m150 166c0 12-7 23-19 23l-44 0c-11 0-22-11-22-23l0-43c0-12 11-20 22-20l44 0c12 0 19 8 19 20z m-23-39l-41 0 0 41 41 0z m-62-192l41 0 0-21-41 0z m107 446l-66 0 0 45-20 0 0-45-214 0 0 45-20 0 0-45-64 0c-24 0-43-19-43-42l0-384c0-24 19-41 43-41l233 0 0 21-233 0c-12 0-22 8-22 20l0 279 426 0 0-279c0-12-8-20-20-20l-22 0 0-21 22 0c24 0 41 17 41 41l0 384c0 23-17 42-41 42z m-406-127l0 85c0 12 10 22 22 22l64 0 0-41 20 0 0 41 214 0 0-41 20 0 0 41 66 0c12 0 20-10 20-22l0-85z"/>
<glyph glyph-name="cap" unicode="&#68;" d="M256 213c35 0 64 29 64 64 0 36-29 64-64 64-35 0-64-28-64-64 0-35 29-64 64-64z m0 107c23 0 43-19 43-43 0-23-20-42-43-42-24 0-43 19-43 42 0 24 19 43 43 43z m213-112l0 133c0 95-76 171-170 171l-86 0c-94 0-170-76-170-171l0-133c-27-34-43-71-43-102 0-82 115-106 256-106 141 0 256 24 256 106 0 31-16 68-43 102z m-405 112c0 59 48 107 107 107l42 0 0 21-42 0c-35 0-66-14-89-36 25 47 74 79 131 79l86 0c57 0 106-32 131-79-23 22-54 36-89 36l0-21c59 0 107-48 107-107l0-107 0 0c-4-12-68-43-192-43-125 0-189 31-192 43l0 0c0 0 0 0 0 0l0 0z m192-299c-138 0-235 23-235 85 0 26 13 56 35 85 29-24 108-42 200-42 92 0 170 18 200 42 22-29 35-59 35-85 0-62-97-85-235-85z m43 406l-43 0 0 21 43 0z"/>
<glyph glyph-name="capability" unicode="&#69;" d="M199 419l-72-71-50 50 15 15 35-35 56 56z m-16-113l-56-56-35 35-15-15 50-50 72 71z m243-28l-171 0 0-20 171 0z m-334-121l-15-15 50-50 72 71-16 15-56-56z m163-26l86 0 0 20-86 0z m171 0l0 20-41 0 0-20z m0 275l-171 0 0-21 171 0z m65-321c0-35-30-61-65-61l-342 0c-35 0-63 26-63 61l0 342c0 35 28 65 63 65l342 0c35 0 64-28 64-66l21 0c0 48-38 86-85 86l-342 0c-47 0-84-38-84-85l0-342c0-47 37-85 84-85l342 0c47 0 86 38 86 85l0 214-21 0z m0 259l21 0 0 41-21 0z"/>
<glyph glyph-name="card" unicode="&#70;" d="M361 149l-127 0 0 21 127 0z m86 21l-41 0 0-21 41 0z m-278 278l-42 0 0-20 42 0z m343-85l0-213c0-47-39-87-86-87l-342 0c-47 0-84 40-84 87l0 213c0 47 38 86 86 86l0-22c-38 0-66-27-66-65l470 0c0 38-29 66-64 66l-212 0 0 20 212 0c47 0 86-38 86-85z m-21-108l-470 0 0-105c0-35 28-63 63-63l342 0c35 0 65 28 65 63z m0 86l-470 0 0-65 470 0z"/>
<glyph glyph-name="cards" unicode="&#71;" d="M21 212l0 194 385 0 0-21 20 0 0 84c0 23-19 43-43 43l-342 0c-23 0-41-20-41-43l0-257c0-23 18-42 42-42l0 21c-11 0-21 10-21 21z m0 257c0 11 9 23 20 23l342 0c12 0 23-12 23-23l0-43-385 0z m426-213c0 12-10 22-22 22l-64 0c-11 0-20-10-20-22l0-43c0-12 9-21 20-21l64 0c12 0 22 9 22 21z m-21-43l-65 0 0 41 65 0z m-278-127l127 0 0-21-127 0z m66 65l0-24-66 0 0 24z m106-24l-65 0 0 24 65 0z m41 24l86 0 0-24-86 0z m0-86l-41 0 0 21 41 0z m130 189l21 0 0-41-21 0z m0-82l21 0 0-130c0-24-20-42-44-42l-341 0c-24 0-41 18-41 42l0 256c0 23 17 42 41 42l341 0c24 0 43-17 43-41l-21 0c0 11-10 21-22 21l-341 0c-12 0-20-10-20-22l0-256c0-12 8-21 20-21l341 0c12 0 23 9 23 21z"/>
<glyph glyph-name="cargo" unicode="&#72;" d="M491 213l-150 0 0-21 150 0 0-171-192 0 0 256 64 0c11 0 21 10 21 22l0 192c0 11-10 21-21 21l-214 0c-11 0-21-10-21-21l0-192-107 0c-11 0-21-10-21-22l0-256c0-11 10-21 21-21l470 0c11 0 21 10 21 21l0 171c0 12-10 21-21 21z m-342 214l86 0 0 21-86 0 0 43 214 0 0-192-214 0z m113-150l-113-113-113 113z m15-15l0-225-113 112z m-143-113l-113-112 0 225z m15-15l113-113-226 0z m171 293l-43 0 0 21 43 0z m135-285l-85-85-15 15 85 85z"/>
<glyph glyph-name="carrier" unicode="&#73;" d="M405 213l0 43c0 12-9 21-21 21l-72 0c18 16 29 39 29 64l0 43 22 0 0 21-22 0 0 22c0 47-38 85-85 85-47 0-85-38-85-85l0-22-22 0 0-21 22 0 0-43c0-25 11-48 29-64l-72 0c-12 0-21-9-21-21l0-43c-36 0-64-28-64-64l0-64c0-47 38-85 85-85l256 0c47 0 85 38 85 85l0 64c0 36-28 64-64 64z m-213 214c0 35 29 64 64 64 35 0 64-29 64-64l0-22-128 0z m0-86l0 43 128 0 0-43c0-35-29-64-64-64-35 0-64 29-64 64z m-64-320c-35 0-64 29-64 64l0 64c0 24 19 43 43 43l0-128 21 0c12 0 21-9 21-21l0-22z m43 0l0 22c0 23-19 42-43 42l0 107 128 0 0 21-128 0 0 43 256 0 0-171c-24 0-43-19-43-42l0-22z m277 64c0-35-29-64-64-64l-21 0 0 22c0 12 9 21 21 21l21 0 0 128c24 0 43-19 43-43z m-107 107l-42 0 0 21 42 0z"/>
<glyph glyph-name="cart" unicode="&#74;" d="M139 107c-30 0-54-24-54-54 0-29 24-53 54-53 29 0 53 24 53 53 0 30-24 54-53 54z m0-86c-18 0-32 15-32 32 0 18 14 32 32 32 17 0 32-14 32-32 0-17-15-32-32-32z m234 86c-29 0-53-24-53-54 0-29 24-53 53-53 30 0 54 24 54 53 0 30-24 54-54 54z m0-86c-17 0-32 15-32 32 0 18 15 32 32 32 18 0 32-14 32-32 0-17-14-32-32-32z m118 406l-43 0 0-22 43 0 0-85-86 0 0 107-42 0 0-22 21 0 0-85-85 0 0 85 21 0 0 22-235 0 0 42c0 24-19 43-42 43l-43 0 0-21 43 0c11 0 21-10 21-22l0-277c0-35 29-64 64-64l277 0 0 21-277 0c-24 0-43 20-43 43l345 0c45 0 82 38 82 85l0 128c0 12-10 22-21 22z m-214-22l0-85-85 0 0 85z m-106 0l0-85-86 0 0 85z m-86-192l0 86 86 0 0-86z m107 0l0 86 85 0 0-86z m107 0l0 86 85 0 0-86z m192 64c0-35-27-64-61-64l-25 0 0 86 86 0z"/>
<glyph glyph-name="case" unicode="&#75;" d="M384 341l0 86c0 47-38 85-85 85l-86 0c-47 0-85-38-85-85l0-86c-71 0-128-57-128-128l0-128c0-47 38-85 85-85l342 0c47 0 85 38 85 85l0 128c0 71-57 128-128 128z m-235 86c0 35 29 64 64 64l86 0c35 0 64-29 64-64l0-86-214 0z m342-342c0-35-29-64-64-64l-342 0c-35 0-64 29-64 64l0 22 342 0 0 21-342 0 0 85c0 59 48 107 107 107l0-43 21 0 0 43 214 0 0-43 21 0 0 43c59 0 107-48 107-107z m-86 43l43 0 0-21-43 0z"/>
<glyph glyph-name="cash" unicode="&#76;" d="M447 361l0-214c0-12-9-20-21-20l-20 0 0 21 20 0 0 212-340 0 0-20-24 0 0 21c0 11 10 24 22 24l342 0c12 0 21-13 21-24z m-320-171c0 35 29 64 64 64 35 0 64-29 64-64 0-36-29-64-64-64-35 0-64 28-64 64z m21 0c0-24 19-43 43-43 24 0 43 19 43 43 0 23-19 42-43 42-24 0-43-19-43-42z m237-105c0-12-10-20-21-20l-343 0c-12 0-21 8-21 20l0 212c0 12 9 22 21 22l343 0c11 0 21-10 21-22z m-24 214l-340 0 0-213 340 0z m-275-24l-44 0 0-21 44 0z m255-148l-42 0 0-20 42 0z m-193 299l193 0 0 21-193 0c-12 0-21-11-21-22l0-20 21 0z m278 21l-44 0 0-21 44 0z m64 0l-23 0 0-21 24 0 0-213-24 0 0-21 23 0c12 0 22 7 22 19l0 214c0 11-10 22-22 22z"/>
<glyph glyph-name="catalogue" unicode="&#77;" d="M65 254l383 0 0-20-383 0z m383 65l-383 0 0-20 383 0z m0 66l-383 0 0-25 383 0z m0 61l-383 0 0-21 383 0z m64 41l0-41-24 0 0 41-464 0 0-294 127 0c0-62 48-106 106-106l0 0c59 0 105 45 105 103l0 3 126 0 0 126 24 0 0-299c0-11-10-18-21-18l-467 0c-12 0-24 7-24 18l0 467c0 12 12 23 24 23l467 0c11 0 21-11 21-23z m-488-318l0-146 464 0 0 146-105 0c-10-58-63-106-126-106-34 0-66 14-90 38-19 19-31 44-35 68z m464 191l24 0 0 45-24 0z"/>
<glyph glyph-name="check" unicode="&#78;" d="M469 512l-426 0c-24 0-43-19-43-43l0-85c0-24 19-43 43-43l21 0 0-341 85 43 86-43 85 0 128 43 0 298 21 0c24 0 43 19 43 43l0 85c0 24-19 43-43 43z m-42-454l-111-37-76 0-91 46-64-32 0 392 342 0z m64 326c0-12-10-21-22-21l-21 0 0 85-384 0 0-85-21 0c-12 0-22 9-22 21l0 85c0 12 10 22 22 22l426 0c12 0 22-10 22-22z m-107 0l-256 0 0-128 256 0z m-21-107l-214 0 0 86 214 0z m-64-85l-171 0 0 21 171 0z m-43-43l128 0 0-21-128 0z m-43-21l-85 0 0 21 85 0z m128 85l43 0 0-21-43 0z"/>
<glyph glyph-name="cirle-chart" unicode="&#79;" d="M404 438l15 15c9-7 17-16 26-24l-16-16c-8 9-16 18-25 25z m108-182c0-141-115-256-256-256-141 0-256 115-256 256 0 141 115 256 256 256 46 0 90-13 127-34l-15-16c-34 18-72 29-112 29-61 0-116-24-158-62l60-60c27 22 61 36 98 36 75 0 137-56 147-129l86 0c-3 38-15 72-34 102l16 16c26-40 41-87 41-138z m-384 0c0-71 57-128 128-128 71 0 128 57 128 128 0 71-57 128-128 128-71 0-128-57-128-128z m-24-178l51 68c-30 28-48 67-48 110 0 37 13 72 36 98l-60 60c-38-42-62-97-62-158 0-71 32-135 83-178z m386 177l-85 0c0-82-67-149-149-149-31 0-60 10-84 27l-52-68c39-27 85-44 136-44 129 0 234 104 234 234z"/>
<glyph glyph-name="coat" unicode="&#80;" d="M384 464l0 5c0 24-19 43-43 43l-170 0c-24 0-43-19-43-43l0-5c-74-19-128-86-128-165l0-235c0-12 10-21 21-21l86 0 0-22c0-11 9-21 21-21l256 0c12 0 21 10 21 21l0 22 86 0c11 0 21 9 21 21l0 235c0 79-55 146-128 165z m-235 5c0 12 10 22 22 22l170 0c12 0 22-10 22-22l0-1c-7 1-15 1-22 1l-85-42-85 42c-8 0-15 0-22-1z m-128-405l0 43 86 0 0-43z m470 0l-86 0 0 43 86 0z m0 64l-86 0 0 192-21 0 0-299-107 0 0 256-21 0 0-256-128 0 0 299-21 0 0-192-86 0 0 171c0 80 65 146 145 149l5-3 0-82 21 0 0 72 64-32 64 32 0-115 21 0 0 125 5 3c80-3 145-69 145-149z m-235 235l21 0 0-43-21 0z"/>
<glyph glyph-name="columns-chart" unicode="&#81;" d="M107 235c0 12-11 21-23 21l-43 0c-11 0-20-9-20-21l0-130 86 0z m-21-106l-44 0 0 106 44 0z m148 234c0 12-10 20-22 20l-42 0c-12 0-22-8-22-20l0-258 86 0z m-20-234l-45 0 0 233 45 0z m147 191c0 12-9 22-21 22l-42 0c-12 0-23-10-23-22l0-215 86 0z m-20-191l-42 0 0 192 42 0z m150 319c0 12-11 21-23 21l-42 0c-12 0-20-9-20-21l0-343 85 0z m-24-319l-41 0 0 320 41 0z m45-65l0-21-426 0 0 21z m-512 0l42 0 0-21-42 0z"/>
<glyph glyph-name="combination-lock" unicode="&#82;" d="M106 512l-64 0c-23 0-42-21-42-45l0-427c0-23 19-40 42-40l64 0c12 0 21 7 21 19l0 470c0 12-9 23-21 23z m1-491l-65 0c-11 0-21 8-21 19l0 427c0 12 10 25 21 25l65 0z m343 426l-216 0 0-86 216 0z m-24-66l-168 0 0 45 168 0z m-147-103l-45 0 0 42 45 0z m85 0l-44 0 0 42 44 0z m86 0l-44 0 0 42 44 0z m-171-86l-45 0 0 41 45 0z m85 0l-44 0 0 41 44 0z m86 0l-44 0 0 41 44 0z m-216-44l45 0 0-41-45 0z m86 0l44 0 0-41-44 0z m86 0l44 0 0-41-44 0z m85 192l21 0 0-300c0-23-19-40-43-40l-297 0 0 512 297 0c24 0 43-20 43-45l-21 0c0 14-10 25-22 25l-276 0 0-471 276 0c12 0 22 8 22 19z m0 86l21 0 0-45-21 0z"/>
<glyph glyph-name="compound-path" unicode="&#83;" d="M256 448c-59 0-106-48-106-107 0-58 47-106 106-106 59 0 107 48 107 106 0 59-48 107-107 107z m0-192c-47 0-85 38-85 85 0 47 38 86 85 86 47 0 85-39 85-86 0-47-38-85-85-85z m0 256c-94 0-171-76-171-171 0-53 26-101 63-133l0-208 107 43 106-43 0 87-20 0 0-55-77 31-8 3-8-3-78-31 0 162 1 0c25-14 54-23 85-23 94 0 171 76 171 170 0 95-77 171-171 171z m0-320c-82 0-149 67-149 149 0 83 67 150 149 150 82 0 149-67 149-150 0-82-67-149-149-149z m85-19l20 0 0-45-20 0z"/>
<glyph glyph-name="contacts" unicode="&#84;" d="M151 128l255 0c0 55-35 101-83 119 24 15 40 41 40 72 0 47-38 85-85 85-47 0-85-38-85-85 0-31 17-57 41-72-49-18-83-64-83-119z m64 191c0 35 28 63 63 63 35 0 64-28 64-63 0-35-29-64-64-64-35 0-63 29-63 64z m63-85c52 0 94-34 104-85l-208 0c10 51 53 85 104 85z m210 65l24 0 0-214c0-46-38-83-85-83l-297 0c-47 0-86 37-86 83l0 23-44 0 0 20 44 0 0 106-44 0 0 24 44 0 0 106-44 0 0 21 44 0 0 40c0 47 39 85 86 85l297 0c47 0 85-37 85-85l-22 0c0 34-28 65-63 65l-297 0c-35 0-65-30-65-65l0-40 41 0 0-21-41 0 0-106 41 0 0-24-41 0 0-106 41 0 0-20-41 0 0-23c0-35 30-62 65-62l297 0c35 0 61 27 61 62z m0 86l24 0 0-45-24 0z"/>
<glyph glyph-name="contract" unicode="&#85;" d="M129 385l148 0 0-20-148 0z m127-86l127 0 0 24-127 0z m-127 0l83 0 0 24-83 0z m254-41l-254 0 0-21 254 0z m-254-86l83 0 0 20-83 0z m278-44c0-35-29-64-65-64-35 0-64 29-64 64 0 36 29 64 64 64 36 0 65-28 65-64z m-22 0c0 24-19 43-43 43-23 0-42-19-42-43 0-23 19-42 42-42 24 0 43 19 43 42z m-22-128l41 0 0 24-41 0z m106 384l0-363c0-11-10-21-20-21l0 365-127 0 0 127-258 0 0-468 258 0 0-24-257 0c-12 0-22 10-22 21l0 470c0 12 10 21 22 21l277 0c50-48 79-78 127-128z m-29 1l-98 97 0-97z"/>
<glyph glyph-name="conversation" unicode="&#86;" d="M124 100c16 11 26 30 26 51 0 35-28 64-63 64-36 0-64-29-64-64 0-21 10-40 26-51-28-14-47-43-47-76l0-24 171 0 0 24c0 33-21 62-49 76z m-80 51c0 24 19 43 42 43 24 0 43-19 43-43 0-23-19-42-43-42-23 0-42 19-42 42z m-21-126c0 33 28 63 63 63 35 0 64-30 64-63z m440 372c16 12 26 30 26 51 0 35-28 64-63 64-35 0-64-29-64-64 0-21 10-39 26-51-28-14-48-43-48-76l0-24 170 0 0 24c0 33-19 62-47 76z m-80 51c0 24 19 43 43 43 23 0 42-19 42-43 0-23-19-42-42-42-24 0-43 19-43 42z m-21-131c0 39 29 64 64 64 35 0 64-25 64-64z m53-67l81-69-14-17-57 49 0-51c0-53-42-97-95-97l-96 0 0 21 96 0c41 0 75 35 75 76l0 51-57-49-14 17z m-233 198l11 0 0-21-11 0c-41 0-74-33-74-74l0-51 56 48 14-16-81-69-81 69 14 16 57-48 0 51c0 53 42 95 95 95z m96-21l-44 0 0 21 44 0z"/>
<glyph glyph-name="copies" unicode="&#87;" d="M276 426l-234 0c-24 0-42-19-42-43l0-341c0-24 18-42 42-42l299 0c23 0 41 18 41 42l0 277c-41 42-64 66-106 107z m85-384c0-12-9-21-20-21l-299 0c-12 0-21 9-21 21l0 341c0 12 9 23 21 23l213 0 0-87c0-12 10-20 21-20l85 0z m-82 278l0 76 37-38 37-38z m-65-21l-128 0 0 21 128 0z m-128-41l213 0 0-25-213 0z m83-66l130 0 0-20-130 0z m-83-65l169 0 0-20-169 0z m41 45l-41 0 0 20 41 0z m278 340l-235 0c-24 0-43-20-43-43l0-22 21 0 0 22c0 11 10 23 22 23l215 0 0-87c0-12 8-20 20-20l107 0 0 20c-41 41-66 66-107 107z m1-106l0 75 37-38 38-37z m85-148l21 0 0-131c0-23-20-41-43-41l-63 0 0 21 63 0c11 0 22 8 22 20z m0 82l21 0 0-41-21 0z"/>
<glyph glyph-name="cosmetics" unicode="&#88;" d="M469 427l-21 0 0 64c0 11-10 21-21 21l-86 0c-12 0-21-10-21-21l0-64-21 0c-24 0-43-19-43-43l0-363-171 0c-35 0-64 29-64 64l192 0 0 22-192 0 0 64c0 35 29 64 64 64l128 0 0 85c0 12-9 21-21 21l-43 0c-11 0-21-9-21-21l0-64-43 0c-47 0-85-38-85-85l0-86c0-47 38-85 85-85l406 0c11 0 21 10 21 21l0 363c0 24-19 43-43 43z m-320-107l43 0 0-64-43 0z m192 171l86 0 0-64-86 0z m150-470l-214 0 0 128 86 0 0 22-86 0 0 128 214 0z m0 299l-214 0 0 64c0 12 10 21 22 21l170 0c12 0 22-9 22-21z m-43-171l-43 0 0 22 43 0z"/>
<glyph glyph-name="delivered" unicode="&#89;" d="M405 512c-59 0-106-48-106-107 0-59 47-106 106-106 59 0 107 47 107 106 0 59-48 107-107 107z m0-192c-47 0-85 38-85 85 0 47 38 86 85 86 25 0 48-11 63-29l-63-63-35 35-15-15 50-50 76 75c6-11 10-25 10-39 0-47-39-85-86-85z m0-64l22 0 0-213c0-24-20-43-43-43l-341 0c-24 0-43 19-43 43l0 341c0 24 19 43 43 43l213 0 0-22-213 0c-12 0-22-9-22-21l0-64 171 0 0-21-171 0 0-256c0-12 10-22 22-22l341 0c12 0 21 10 21 22z m-170 64l42 0 0-21-42 0z m-150-128c-11 0-21-9-21-21l0-86c0-11 10-21 21-21l128 0c12 0 22 10 22 21l0 86c0 12-10 21-22 21z m128-107l-128 0 0 86 128 0z"/>
<glyph glyph-name="destroy" unicode="&#90;" d="M406 237l44 0 0-24-44 0z m-107-24l86 0 0 24-86 0z m65 217l-212 0 0-24 212 0z m-212-86l171 0 0 21-171 0z m298 62l0 44-20 0 0-44z m62-128l0-86c0-23-18-41-41-41l-21 0 0-106-86 0 0 106-41 0 0-151-109 0 0 151-42 0 0-106-107 0 0 106-21 0c-24 0-44 18-44 41l0 86c0 23 20 45 44 45l21 0 0 189 385 0 0-20-364 0 0-214 344 0 0 87 20 0 0-42 21 0c23 0 41-22 41-45z m-360-127l-66 0 0-86 66 0z m147 0l-62 0 0-127 62 0z m131 0l-45 0 0-86 45 0z m61 127c0 11-8 21-20 21l-21 0 0-41-385 0 0 41-21 0c-12 0-20-10-20-21l0-86c0-12 8-20 20-20l427 0c12 0 20 8 20 20z"/>
<glyph glyph-name="diagnostics" unicode="&#48;" d="M367 286l15 0 0-20-25 0-37 46-66-111-64 128-35-63-28 0 0 20 15 0 50 87 64-128 62 103z m79-20c-3-31-13-57-28-81l91-92-60-60-92 92c-29-19-64-30-102-30-99 0-180 75-191 171l-64 0 0 20 63 0c0 107 86 193 192 193 26 0 51-5 74-14l-17-17c-18 7-37 10-57 10-94 0-171-76-171-171 0-94 77-170 171-170 94 0 171 76 171 170 0 28-7 53-18 76l16 16c15-28 23-58 23-93l65 0 0-20z m-41-98c-9-12-19-22-30-31l74-74 30 30z m-21 231l15 16c-10 10-20 20-32 28l-15-15c12-8 22-18 32-29z"/>
<glyph glyph-name="dialog" unicode="&#49;" d="M194 171l148 0c47 0 84 40 84 87l0 169c0 47-37 82-84 82l-255 0c-46 0-87-35-87-82l0-169c0-47 38-85 85-85l0-85z m-170 87l0 169c0 35 28 62 63 62l255 0c35 0 61-27 61-62l0-169c0-36-26-67-61-67l-156 0-80-59 0 59-19 0c-35 0-63 31-63 67z m147-152l45 0 0-20-45 0z m341 258l0-191c0-47-41-85-86-85l0-85-105 83-65 0 0 20 72 0 75-59 0 59 24 0c35 0 61 31 61 67l0 191c0 11-6 21-20 21l0 21c23 0 44-19 44-42z m-341 39l-86 0 0 24 86 0z m85-126l-171 0 0 20 171 0z m86 65l-257 0 0 20 257 0z m0 61l-126 0 0 24 126 0z"/>
<glyph glyph-name="dishes" unicode="&#50;" d="M491 299l-171 0c-12 0-21-10-21-22l0-128c0-39 26-71 62-81-12-12-20-28-20-47l-277 0c-24 0-43 20-43 43l150 0 0 21-171 0 0-21c0-35 29-64 64-64l405 0 0 21c0 19-7 35-20 47 36 10 63 42 63 81l0 128c0 12-10 22-21 22z m-128-278c0 24 19 43 42 43 24 0 43-19 43-43z m64 64l-43 0c-28 0-51 18-60 43l163 0c-9-25-33-43-60-43z m64 64l-171 0 0 128 171 0z m-384 128c0-70 57-128 128-128 7 0 14 1 21 2l0-21c-7-1-14-2-21-2-83 0-150 67-150 149 0 83 67 150 150 150 59 0 110-35 134-86l-24 0c-22 39-63 64-110 64-71 0-128-57-128-128z m-53-149c-34 41-54 93-54 149 0 130 105 235 235 235 107 0 197-72 225-171l-22 0c-27 87-108 150-203 150-118 0-214-96-214-214 0-58 24-110 62-149z m159-43l43 0 0-21-43 0z"/>
<glyph glyph-name="document" unicode="&#51;" d="M385 320l-106 0 0 20 106 0z m-258-62l214 0 0 20-214 0z m107 189l0-127-107 0 0 127z m-20-21l-62 0 0-86 62 0z m298-256l0-86c0-47-38-84-85-84l-342 0c-47 0-85 37-85 84l0 86c0 23 21 42 42 42l0 278c0 12 10 22 22 22l299 0c42-41 67-66 108-107l0-20-108 0c-12 0-22 8-22 20l0 87-276 0 0-279 84 0c12 0 23-10 23-22l0-1c0-35 27-63 63-63l43 0c35 0 63 28 63 64l0 0c0 11 10 22 22 22l87 0 0 45 21 0 0-46c24 0 41-19 41-42z m-148 236l75 0-75 75z m127-236c0 12-10 22-21 22l-106 0 0-1c0-47-39-84-86-84l-43 0c-47 0-87 37-87 84l0 1-105 0c-12 0-22-10-22-22l0-86c0-35 29-63 64-63l342 0c35 0 64 28 64 63z m-20 129l0 41-21 0 0-41z"/>
<glyph glyph-name="dress" unicode="&#52;" d="M427 0l85 0-85 256 0 85c-24 0-43 19-43 43l0 128-64 0-64-107-64 107-64 0 0-128c0-24-19-43-43-43l0-85-85-256 299 0 0 21-269 0 71 214 112 0 0-86 22 0 0 86 42 0 0-128 22 0 0 128 112 0 71-214-55 0z m-320 256l0 68c24 8 42 32 42 60l0 107 31 0c0 0 58-96 58-97 8-13 28-13 36 0l58 97 31 0 0-107c0-28 17-52 42-60l0-68z m234-235l43 0 0-21-43 0z"/>
<glyph glyph-name="edit" unicode="&#53;" d="M376 264c5 18 8 37 8 56 0 106-86 192-192 192-25 0-49-5-71-14l92-93-21-85-85-21-93 92c-9-22-14-46-14-71 0-106 86-192 192-192 19 0 38 3 56 8l136-136 128 128z m64-177l-70 70-15-15 70-70-41-42-130 131c-21-7-41-12-62-12-94 0-171 77-171 171 0 10 1 21 3 31l76-76c0 0 77 19 110 27l27 110-76 76c10 2 21 3 31 3 94 0 171-77 171-171 0-21-5-41-12-62 44-43 87-86 131-130z m-155 155l42-42-15-15-42 42z"/>
<glyph glyph-name="engineering" unicode="&#54;" d="M364 152l0 82-278 277-86-83 278-276z m-23 20l-55 0-210 209 55 55 210-211z m-256 309l31-30-55-56-31 31z m180-374l141 0 0 170 20 21 0-211-213 0 22 20z m247 404l0-84-21 0 0 37-146-148-14 14z m-21-125l21 0 0-45-21 0z m0-87l21 0 0-299-512 0 174 173 14-14-136-137 439 0z"/>
<glyph glyph-name="exchange" unicode="&#55;" d="M342 256l170 128-170 128 0-85-299 0 0-86 299 0z m-278 110l0 41 298 0 0 62 114-85-114-85 0 67z m106-193l298 0 0-85-20 0 0 65-299 0 0 60-113-85 113-85 0 65 172 0 0-20-151 0 0-88-170 128 170 128z m192-65l45 0 0-20-45 0z"/>
<glyph glyph-name="favorable-decision" unicode="&#56;" d="M499 78l-81 81c23 36 37 79 37 125 0 29-5 57-15 82l-17-16c7-21 11-43 11-66 0-113-93-206-206-206-114 0-206 93-206 206 0 114 92 206 206 206 45 0 87-15 122-40l15 15c-38 30-86 47-137 47-126 0-228-102-228-228 0-125 102-227 228-227 46 0 89 14 125 37l81-81c9-9 20-13 32-13 12 0 24 4 33 13l0 0c18 18 18 47 0 65z m-16-49c-4-5-10-7-17-7-6 0-13 2-17 7l-79 78c13 10 25 22 35 35l78-79c10-9 10-25 0-34z m-201 311l21 0c0 34-27 64-62 64l0 43-25 0 0-43c-35 0-65-30-65-65 0-36 30-65 65-65l0-87c-21 0-43 20-43 44l-21 0c0-35 29-66 64-66l0-42 25 0 0 42c35 0 65 29 65 65 0 36-30 65-65 65l0 87c24 0 41-19 41-42z m2-110c0-24-19-43-43-43l0 87c24 0 43-20 43-44z m-68 65c-21 0-43 20-43 44 0 23 22 43 43 43z m186 99c-6 8-12 17-19 25l16 15c7-8 13-16 19-25z"/>
<glyph glyph-name="finditem" unicode="&#57;" d="M505 29l-102 102c19 22 30 51 30 82 0 71-57 128-127 128-71 0-128-57-128-128 0-70 57-128 128-128 23 0 45 7 63 18l0-82-341 0 0 64 86 0 0 22-86 0 0 298 86 0 0-42 21 0 0 42 128 0 0-42 21 0 0 42 85 0 0-64 22 0 0 86-107 0c0 47-38 85-85 85-47 0-85-38-85-85l-107 0 0-427 384 0 0 113 99-99z m-306 462c35 0 64-29 64-64l-128 0c0 35 29 64 64 64z m0-278c0 59 48 107 107 107 58 0 106-48 106-107 0-58-48-106-106-106-59 0-107 48-107 106z m0-128l-43 0 0 22 43 0z m85 171l0-21-21 0 0-43 21 0 0-21-42 0 0 85z m22 0l21 0 0-85-21 0z m42 0l21 0 0-85-21 0z"/>
<glyph glyph-name="flip-flops" unicode="&#33;" d="M363 160l42 0 0-21-42 0z m149 43l0-43c0-12-10-21-21-21l-43 0 0 21 43 0 0 43-470 0 0-43 299 0 0-21-299 0c-11 0-21 9-21 21l0 43c0 11 10 21 21 21l118 0 74 149 214-42-36-107 100 0c11 0 21-10 21-21z m-280 21l49 114-56 11-63-125z m137 0l30 90-97 20-47-110z"/>
<glyph glyph-name="folder" unicode="&#34;" d="M426 405l-43 0 0 24 43 0z m86-21l0-340c0-23-20-42-43-42 0 0-424 0-424 0-23 0-45 19-45 42l0 424c0 24 22 42 45 42l144 0c16 0 30-7 38-21l30-60 85 0 0-24-98 0-36 73c-4 7-11 12-19 12l-144 0c-12 0-21-10-21-22l0-424c0-12 9-18 21-18l20 0 0 294c0 23 20 44 44 44l379 0 0 20c0 11-6 21-20 21l0 21c23 0 44-19 44-42z m-24-41l-379 0c-12 0-24-11-24-23l0-294 384 0c12 0 19 6 19 18z"/>
<glyph glyph-name="foodtruck" unicode="&#35;" d="M469 235l-42 213-171 0 0 21c0 24-19 43-43 43l-149 0c-12 0-21-10-21-21l0-43-22 0c-11 0-21-10-21-21l0-342c0-23 19-42 43-42l4 0c8-25 32-43 60-43 27 0 51 18 60 43l178 0c9-25 32-43 60-43 28 0 51 18 60 43l26 0c11 0 21 9 21 21l0 128c0 24-19 43-43 43z m-22 0l-63 0 0 128 38 0z m-383 256l149 0c12 0 22-10 22-22l0-21-171 0z m43-470c-24 0-43 20-43 43 0 24 19 43 43 43 23 0 42-19 42-43 0-23-19-43-42-43z m298 0c-23 0-42 20-42 43 0 24 19 43 42 43 24 0 43-19 43-43 0-23-19-43-43-43z m86 43l-22 0c0 35-28 64-64 64-35 0-64-29-64-64l-170 0c0 35-29 64-64 64-36 0-64-29-64-64-12 0-22 10-22 21l0 342 388 0 9-43-34 0c-12 0-21-10-21-21l0-128c0-12 9-22 21-22l85 0c12 0 22-9 22-21z m-299 171l43 0 0-22-43 0z m107 149l-214 0c-11 0-21-10-21-21l0-128c0-12 10-22 21-22l64 0 0 22-64 0 0 64 214 0 0-64-22 0 0-22 22 0c11 0 21 10 21 22l0 128c0 11-10 21-21 21z m-214-64l0 43 43 0 0-43z m64 0l0 43 86 0 0-43z m150 0l-43 0 0 43 43 0z"/>
<glyph glyph-name="fruit" unicode="&#36;" d="M444 192l22 0c-2-14-6-29-11-43l-23 0c5 14 10 29 12 43z m-32-85l25 0c-33-60-85-107-145-107-13 0-24 1-36 4-11-3-23-4-36-4-98 0-177 124-177 230 0 58 25 117 81 142-48 18-81 65-81 119l0 21 85 0c71 0 128-57 128-128 0 47 38 85 85 85l64 0 0-21c0-29-14-54-36-70 67-18 99-80 100-143l-21 0c-2 60-34 128-121 128-25 0-48-7-71-16-23 9-46 16-71 16-89 0-121-72-121-133 0-94 72-209 156-209 13 0 24 2 36 5 12-3 24-5 36-5 47 0 91 37 120 86z m-135 277l43 0c35 0 64 29 64 64l-43 0c-35 0-64-29-64-64z m-42 0c0 59-48 107-107 107l-64 0c0-59 48-107 107-107z"/>
<glyph glyph-name="games" unicode="&#37;" d="M384 384c0-12-10-21-21-21-12 0-22 9-22 21 0 12 10 21 22 21 11 0 21-9 21-21z m-21-107c-12 0-22-9-22-21 0-12 10-21 22-21 11 0 21 9 21 21 0 12-10 21-21 21z m42 43c0-12 10-21 22-21 11 0 21 9 21 21 0 12-10 21-21 21-12 0-22-9-22-21z m-128 0c0-12 10-21 22-21 11 0 21 9 21 21 0 12-10 21-21 21-12 0-22-9-22-21z m-149-64c12 0 21 10 21 21l0 22 22 0c11 0 21 9 21 21 0 12-10 21-21 21l-22 0 0 22c0 11-9 21-21 21-12 0-21-10-21-21l0-22-22 0c-11 0-21-9-21-21 0-12 10-21 21-21l22 0 0-22c0-11 9-21 21-21z m384 128l0-43-21 0 0 43c0 59-49 107-108 107-11 0-20-10-20-22 0-11-10-21-22-21l-170 0c-12 0-22 10-22 21 0 12-9 22-20 22-59 0-108-48-108-107l0-256 128 0 0 64 214 0 0-64 128 0 0 85 21 0 0-128c0-47-38-85-85-85-48 0-86 38-86 85l0 86-170 0 0-86c0-47-39-85-86-85-47 0-85 38-85 85l0 299c0 71 57 128 128 128 24 0 43-19 43-43l170 0c0 24 19 43 43 43 71 0 128-57 128-128z m-149-299c0-35 28-64 64-64 35 0 64 29 64 64l0 22-128 0z m-342 22l0-22c0-35 29-64 64-64 36 0 64 29 64 64l0 22z m470 149l21 0 0 43-21 0z"/>
<glyph glyph-name="gift" unicode="&#38;" d="M469 405l-59 0c10 12 17 27 17 43 0 35-29 64-64 64l-22 0c-47 0-85-38-85-85 0 47-38 85-85 85l-22 0c-35 0-64-29-64-64 0-16 7-31 17-43l-59 0c-24 0-43-19-43-42l0-64c0-12 10-22 21-22l22 0 0-256c0-11 9-21 21-21l384 0c12 0 21 10 21 21l0 86-21 0 0-86-128 0 0 256 128 0 0-42 21 0 0 42 22 0c11 0 21 10 21 22l0 64c0 23-19 42-43 42z m-192 22c0 35 29 64 64 64l22 0c23 0 42-19 42-43 0-24-19-43-42-43l-86 0z m-128 64l22 0c35 0 64-29 64-64l0-22-86 0c-23 0-42 19-42 43 0 24 19 43 42 43z m-128-192l0 64c0 11 10 21 22 21l128 0 0-85z m43-278l0 256 128 0 0-256z m235 0l-86 0 0 256 86 0z m21 278l-128 0 0 85 128 0z m171 0l-150 0 0 85 128 0c12 0 22-10 22-21z m-43-107l21 0 0-43-21 0z"/>
<glyph glyph-name="glasses" unicode="&#39;" d="M427 256l-64 0c-32 0-59-17-74-43l-66 0c-15 26-42 43-74 43l-64 0c-25 0-48-12-64-29l0 157c0 35 29 64 64 64l43 0 0 21-43 0c-47 0-85-38-85-85l0-256c0-47 38-85 85-85l22 0c70 0 128 57 128 128 0 7-2 14-3 21l48 0c-1-7-3-14-3-21 0-71 58-128 128-128l22 0c47 0 85 38 85 85l0 43c0 47-38 85-85 85z m-320-192l-22 0c-35 0-64 29-64 64l0 43c0 35 29 64 64 64l64 0c36 0 64-29 64-64 0-59-48-107-106-107z m384 64c0-35-29-64-64-64l-22 0c-59 0-106 48-106 107 0 35 28 64 64 64l64 0c35 0 64-29 64-64z m21 256l0-43-21 0 0 43c0 35-29 64-64 64l-43 0 0 21 43 0c47 0 85-38 85-85z m-21-86l21 0 0-42-21 0z"/>
<glyph glyph-name="handbag" unicode="&#40;" d="M491 341l-64 0c0 95-77 171-171 171-94 0-171-76-171-171l-64 0c-11 0-21-9-21-21l0-235c0-47 38-85 85-85l342 0c47 0 85 38 85 85l0 235c0 12-10 21-21 21z m0-256c0-35-29-64-64-64l-342 0c-35 0-64 29-64 64l0 126c32-62 97-104 171-104l4 0c9-25 32-43 60-43 28 0 51 18 60 43l4 0c74 0 139 42 171 104z m-278 43c0 24 19 43 43 43 23 0 43-19 43-43 0-23-20-43-43-43-24 0-43 20-43 43z m278 171c0-94-77-171-171-171 0 35-29 64-64 64-35 0-64-29-64-64-94 0-171 77-171 171l0 21 214 0 0 21-128 0c0 83 67 150 149 150 82 0 149-67 149-150l-42 0 0-21 128 0z m-171 42l0-21-43 0 0 21z"/>
<glyph glyph-name="hat" unicode="&#41;" d="M299 149l-86 0c-11 0-21-9-21-21l0-43c0-11 10-21 21-21l86 0c11 0 21 10 21 21l0 43c0 12-10 21-21 21z m0-64l-86 0 0 43 86 0z m170 128l0 86c0 118-95 213-213 213-118 0-213-95-213-213l0-86c-24 0-43-19-43-42l0-128c0-24 19-43 43-43l426 0c24 0 43 19 43 43l0 128c0 23-19 42-43 42z m22-170c0-12-10-22-22-22l-426 0c-12 0-22 10-22 22l0 128c0 12 10 21 22 21l234 0 0 21-213 0 0 86c0 106 86 192 192 192 106 0 192-86 192-192l0-86-43 0 0-21 64 0c12 0 22-9 22-21z m-171 170l43 0 0-21-43 0z"/>
<glyph glyph-name="headphones" unicode="&#42;" d="M491 149l21 0 0-42-21 0z m21 107l0-64-64 0 0-171 21 0c12 0 22 10 22 22l0 21 21 0 0-21c0-24-19-43-43-43l-64 0c-23 0-42 19-42 43l0 128c0 23 19 42 42 42l86 0 0 43c0 61-24 116-62 158l-38-38c-4-4-11-3-15 0 0 1 0 1 0 1-31 31-73 50-120 50-47 0-89-19-120-50 0 0 0 0 0-1-5-4-11-4-16 0 0 0-37 38-37 38-38-42-62-97-62-158l0-43 86 0c23 0 42-19 42-42l0-128c0-24-19-43-42-43l-64 0c-24 0-43 19-43 43l0 213c0 141 115 256 256 256 141 0 256-115 256-256z m-427-64l0-171 22 0c11 0 21 10 21 22l0 128c0 12-10 21-21 21z m-64 0l0-149c0-12 10-22 22-22l21 0 0 171z m235 256c49 0 94-19 128-49l30 30c-42 38-97 62-158 62-61 0-116-24-158-62l30-30c34 30 79 49 128 49z m171-256l-22 0c-12 0-21-9-21-21l0-128c0-12 9-22 21-22l22 0z"/>
<glyph glyph-name="headwear" unicode="&#43;" d="M427 266l0 33c0 94-77 170-171 170-94 0-171-76-171-170l0-33c-52-24-85-57-85-95 0-71 115-128 256-128 141 0 256 57 256 128 0 38-33 71-85 95z m-320-50c31-13 76-22 128-24l0 22c-62 2-105 14-128 25l0 60c0 82 67 149 149 149 82 0 149-67 149-149l0-60c-10-5-25-10-42-14l0-22c16 3 30 8 42 13l0-42c-11-9-63-25-149-25-86 0-138 16-149 25z m149-152c-138 0-235 56-235 107 0 25 24 51 64 71l0-71c0-24 77-43 171-43 94 0 171 19 171 43l0 71c40-20 64-46 64-71 0-51-97-107-235-107z m64 132c-14-2-28-3-43-4l0 22c16 0 30 2 43 3z"/>
<glyph glyph-name="heel" unicode="&#44;" d="M448 149l-21 0c-24 0-43 19-43 43l0 64c0 12-10 21-21 21l-107 0-213 192c-24 0-43-19-43-42l0-54c0-34 13-67 37-91l6-5 64-58 0-155-43 0 0 85-21 0 0-85c0-12 9-21 21-21l43 0c11 0 21 9 21 21l0 135 171-156 192 0c11 0 21 9 21 21l0 21c0 36-29 64-64 64z m43-85l-184 0-249 228-5 6c-21 20-32 46-32 75l0 54c0 9 6 17 15 20l206-186c4-3 9-5 14-5l107 0 0-64c0-35 28-64 64-64l21 0c23 0 43-19 43-43z m-427 128l-21 0 0 43 21 0z"/>
<glyph glyph-name="help" unicode="&#45;" d="M407 436l15 15c11-9 21-19 30-30l-15-15c-9 11-20 21-30 30z m105-180c0-141-115-256-256-256-141 0-256 115-256 256 0 141 115 256 256 256 48 0 92-13 130-36l-16-16c-15 9-33 16-50 21l0-114c21-11 36-26 48-46l113 0c-5 17-11 33-20 49l16 16c22-38 35-83 35-130z m-134 44c4-14 7-28 7-43 0-15-3-29-7-43l108 0c3 14 5 29 5 43 0 15-2 29-5 43z m-121 63c-59 0-107-48-107-107 0-59 48-107 107-107 59 0 107 48 107 107 0 59-48 107-107 107z m-1 128c-15 0-29-2-42-4l0-110c13 4 28 7 43 7 15 0 28-3 42-7l0 109c-14 3-28 5-43 5z m-226-170l116 0c12 20 26 35 47 46l0 115c-79-22-140-82-163-161z m-9-64c0-14 2-29 4-43l111 0c-4 14-7 28-7 43 0 15 3 29 7 43l-111 0c-2-14-4-28-4-43z m172-227l0 115c-21 12-35 28-47 49l-116 0c23-79 84-142 163-164z m63-8c15 0 29 1 43 4l0 110c-14-5-27-8-42-8-15 0-30 3-43 8l0-111c13-2 27-3 42-3z m225 172l-113 0c-12-21-27-37-48-49l0-114c79 22 139 84 161 163z"/>
<glyph glyph-name="home" unicode="&#46;" d="M193 276l0-42 127 0 0 42c0 35-28 64-63 64-36 0-64-29-64-64z m106 0l0-22-85 0 0 22c0 23 19 42 43 42 23 0 42-19 42-42z m127-107l21 0 0-41-21 0z m0-82l21 0 0-46c0-23-18-40-42-40l-106 0 0 168-85 0 0-168-107 0c-24 0-44 17-44 40l0 173-63 0 256 297 85-100 0 56 85 0 0-156 86-97-86 0 0 20 39 0-59 69 0 144-45 0 0-94-106 125-209-244 40 0 0-193c0-12 9-19 21-19l86 0 0 171 127 0 0-171 85 0c12 0 21 7 21 19z"/>
<glyph glyph-name="idea" unicode="&#47;" d="M256 512c-106 0-193-53-193-171 0-104 107-152 107-279l172 0c0 131 107 160 107 279 0 118-87 171-193 171z m65-426l-130 0c-6 63-35 105-60 144-25 37-46 69-46 111 0 45 16 150 171 150 155 0 171-105 171-150 0-51-22-82-48-120-25-36-52-76-58-135z m27 234l37 0 0-20-50 0-35 61-64-150-51 89-58 0 0 20 71 0 35-62 64 150z m-90-299l83 0 0-21-83 0z m-86 0l42 0 0-21-42 0z"/>
<glyph glyph-name="info" unicode="&#58;" d="M342 350c0 29-24 53-54 53-29 0-53-24-53-53 0-30 24-53 53-53 30 0 54 23 54 53z m-86 0c0 18 15 32 32 32 18 0 32-14 32-32 0-18-14-32-32-32-17 0-32 14-32 32z m-22-223l65 0 0 106-41 0 0 21 62 0 0-127 44 0 0-20-130 0z m-213 299l44 0 0-20-44 0 0-299 44 0 0-21-44 0c-11 0-21 7-21 18l0 299c0 12 10 23 21 23z m470-86l21 0 0-41-21 0z m-85 172l-299 0c-12 0-21-12-21-23l0-470c0-12 9-19 21-19l384 0c12 0 21 7 21 19l0 235-21 0 0-233-384 0 0 467 278 0 0-85c0-11 9-18 21-18l106 0 0 18c-41 42-65 68-106 109z m0-32l38-37 38-37-76 0z"/>
<glyph glyph-name="innovation" unicode="&#59;" d="M256 384c35 0 64 29 64 64 0 35-29 64-64 64-35 0-64-29-64-64 0-35 29-64 64-64z m0 107c23 0 43-19 43-43 0-23-20-43-43-43-24 0-43 20-43 43 0 24 19 43 43 43z m192-171c-35 0-64-29-64-64 0-35 29-64 64-64 35 0 64 29 64 64 0 35-29 64-64 64z m0-107c-24 0-43 20-43 43 0 24 19 43 43 43 23 0 42-19 42-43 0-23-19-43-42-43z m-384-21c35 0 64 29 64 64 0 35-29 64-64 64-35 0-64-29-64-64 0-35 29-64 64-64z m0 107c23 0 43-19 43-43 0-23-20-43-43-43-24 0-43 20-43 43 0 24 19 43 43 43z m192-171c-35 0-64-29-64-64 0-35 29-64 64-64 35 0 64 29 64 64 0 35-29 64-64 64z m0-106c-24 0-43 19-43 42 0 24 19 43 43 43 23 0 43-19 43-43 0-23-20-42-43-42z m192 106c-14 0-27-4-37-12l-73 73c15 18 25 41 25 67 0 26-10 49-25 67l73 73c10-7 23-12 37-12 35 0 64 29 64 64 0 35-29 64-64 64-35 0-64-29-64-64 0-14 4-26 12-37l-73-73c-18 15-41 25-67 25-26 0-49-10-67-25l-73 73c7 11 12 23 12 37 0 35-29 64-64 64-35 0-64-29-64-64 0-35 29-64 64-64 14 0 26 5 37 12l73-73c-15-18-25-41-25-67 0-26 10-49 25-67l-73-73c-11 8-23 12-37 12-35 0-64-29-64-64 0-35 29-64 64-64 35 0 64 29 64 64 0 14-5 27-12 37l73 73c18-15 41-25 67-25 26 0 49 10 67 25l73-73c-8-10-12-23-12-37 0-35 29-64 64-64 35 0 64 29 64 64 0 35-29 64-64 64z m0 363c23 0 42-19 42-43 0-23-19-43-42-43-24 0-43 20-43 43 0 24 19 43 43 43z m-384-86c-24 0-43 20-43 43 0 24 19 43 43 43 23 0 43-19 43-43 0-23-20-43-43-43z m0-383c-24 0-43 19-43 42 0 24 19 43 43 43 23 0 43-19 43-43 0-23-20-42-43-42z m107 234c0 47 38 85 85 85 47 0 85-38 85-85 0-47-38-85-85-85-47 0-85 38-85 85z m277-234c-24 0-43 19-43 42 0 24 19 43 43 43 23 0 42-19 42-43 0-23-19-42-42-42z"/>
<glyph glyph-name="jacket" unicode="&#60;" d="M341 512l-85-256-85 256-171-85 0-363c0-12 10-21 21-21l86 0 0-43 85 0 64 85 64-85 85 0 0 43 86 0c11 0 21 9 21 21l0 363z m-160-491l-53 0 0 128 64 0 0 22-64 0 0 149-21 0 0-256-86 0 0 350 137 68 77-229 0-160z m310 43l-86 0 0 171-21 0 0-64-64 0 0-22 64 0 0-128-53 0-75 100 0 68 20 60 78 233 137-68z m-86 213l-21 0 0 43 21 0z"/>
<glyph glyph-name="jewelry" unicode="&#61;" d="M405 213c-4 0-7 0-11-1 60 54 118 119 118 172 0 60-33 92-85 109l0-22c44-17 64-45 64-87 0-78-160-201-235-252-75 51-235 174-235 252 0 78 64 107 235 107 15 0 29-1 43-1l0 21c-14 1-28 1-43 1-141 0-256-16-256-128 0-53 57-118 118-172-4 1-7 1-11 1-36 0-64-28-64-64 0-35 28-64 64-64 35 0 64 29 64 64 0 8-2 16-5 23 26-20 49-37 66-49-24-9-40-32-40-59 0-35 29-64 64-64 35 0 64 29 64 64 0 27-16 50-40 59 17 12 40 29 65 49-2-7-4-15-4-23 0-35 29-64 64-64 36 0 64 29 64 64 0 36-28 64-64 64z m-298-106c-24 0-43 19-43 42 0 24 19 43 43 43 23 0 42-19 42-43 0-23-19-42-42-42z m192-43c0-23-20-43-43-43-24 0-43 20-43 43 0 24 19 43 43 43 23 0 43-19 43-43z m106 43c-23 0-42 19-42 42 0 24 19 43 42 43 24 0 43-19 43-43 0-23-19-42-43-42z m-21 375c-13 2-27 4-43 5l0 22c15-1 29-3 43-5z"/>
<glyph glyph-name="job" unicode="&#62;" d="M342 23l40 0 0-21-40 0z m170 274l0-212c0-47-45-84-86-85l0 21c41 1 62 29 62 64l0 114c-13-18-36-29-61-29l-110 0c-9-24-32-43-60-43-27 0-51 19-59 43l-110 0c-26 0-50 11-64 29l0-114c0-35 29-62 64-62l209 0 0-21-209 0c-47 0-88 36-88 83l0 212c0 47 41 88 88 88l42 0c0 68 57 127 127 127 70 0 127-59 127-127l43 0c47 0 85-41 85-88z m-361 88l212 0c0 57-47 106-106 106-58 0-106-49-106-106z m149-194c0 23-19 42-43 42-23 0-42-19-42-42 0-24 19-43 42-43 24 0 43 19 43 43z m188 63l0 43c0 35-26 63-61 63l-339 0c-35 0-64-28-64-63l0-43c0-35 29-61 64-61l106 0c0 35 28 64 63 64 35 0 64-29 64-64l106 0c35 0 61 26 61 61z"/>
<glyph glyph-name="law" unicode="&#63;" d="M469 87l-149 0c-24 0-44-20-44-44l0-42 236 0 0 42c0 24-19 44-43 44z m22-65l-191 0 0 21c0 12 8 24 20 24l149 0c12 0 22-12 22-24z m-107 332l-30 30 15 15 30-30z m-7-218c8-8 21-8 30 0l98 98c8 8 8 21 0 30l-76 75-15-15 15-15-98-98-120 121 97 98 16-15 15 15c0 0-76 75-76 75-8 8-22 8-30 0l-98-98c-8-8-8-22 0-30l91-90-214-214c-16-16-16-43 0-60 17-16 44-16 61 0l213 213z m-227 257l98 100 0 0 45-47-97-98z m339-144l-97-98-46 45 6 6 92 92z m-431-221c-4-4-10-6-15-6-6 0-11 2-15 6-4 4-7 9-7 15 0 6 3 11 7 15l213 214 30-31z"/>
<glyph glyph-name="layout" unicode="&#64;" d="M421 301l91-45-256-128-256 128 91 45 23-12-66-33 208-104 208 104-66 33z m-23-140l66-33-208-104-208 104 66 33-23 13-91-46 256-128 256 128-91 46z m-14 287l-43 21-16-16 43-21z m128-64l-85 43-16-16 53-27-208-104-208 104 208 104 27-13 16 16-43 21-256-128 256-128z"/>
<glyph glyph-name="license" unicode="&#91;" d="M321 342c-35 0-64-28-64-63 0-35 29-64 64-64 35 0 63 29 63 64 0 35-28 63-63 63z m0-106c-24 0-43 19-43 43 0 23 19 42 43 42 23 0 42-19 42-42 0-24-19-43-42-43z m-109 167l-62 0 0 20 62 0z m-106 20l0-20-41 0 0 20z m65-81l-106 0 0 20 106 0z m-106-45l85 0 0-20-85 0z m447 173l0-340c0-23-19-44-43-44l-21 0 0 20 21 0c12 0 19 12 19 24l0 340c0 11-7 19-19 19l-424 0c-12 0-21-8-21-19l0-340c0-12 9-24 21-24l146 0 0-20-146 0c-24 0-45 21-45 44l0 340c0 23 21 39 45 39l424 0c24 0 43-16 43-39z m-191-64c-71 0-128-57-128-127 0-38 15-72 43-95l0-181 83 42 84-42 0 181c27 23 44 57 44 95 0 70-56 127-126 127z m62-369l-64 32-63-32 0 131c17-10 40-17 63-17 24 0 46 7 64 17z m-62 136c-59 0-106 47-106 106 0 58 47 106 106 106 58 0 106-48 106-106 0-59-48-106-106-106z"/>
<glyph glyph-name="line-chart" unicode="&#93;" d="M86 43l426 0 0-21-426 0z m-86-21l42 0 0 21-42 0z m53 63c-29 0-53 23-53 53 0 29 24 53 53 53 11 0 21-3 29-8l77 95c-6 9-10 19-10 30 0 30 24 54 54 54 29 0 53-24 53-54 0-10-3-20-8-28l74-56c8 6 19 10 30 10 3 0 5-1 8-1l70 158c-15 10-25 26-25 45 0 30 24 54 54 54 29 0 53-24 53-54 0-29-24-53-53-53-3 0-6 0-9 1l-70-158c15-10 25-26 25-46 0-29-24-53-53-53-30 0-53 24-53 53 0 11 3 21 8 29l-74 56c-9-6-19-10-30-10-11 0-21 3-29 9l-77-96c6-9 10-19 10-30 0-30-24-53-54-53z m374 351c0-17 14-32 32-32 17 0 31 15 31 32 0 18-14 32-31 32-18 0-32-14-32-32z m-107-256c0-17 14-31 32-31 18 0 32 14 32 31 0 18-14 32-32 32-18 0-32-14-32-32z m-149 128c0-17 14-32 32-32 17 0 32 15 32 32 0 18-15 32-32 32-18 0-32-14-32-32z m-86-170c0 17-14 32-32 32-17 0-32-15-32-32 0-18 15-32 32-32 18 0 32 14 32 32z"/>
<glyph glyph-name="list" unicode="&#94;" d="M192 213l0-21-85 0 0 21z m85-21l0 21-42 0 0-21z m-170-64l128 0 0 21-128 0z m298 85l-85 0 0-21 85 0z m-128 64l-170 0 0-21 170 0z m128 0l-85 0 0-21 85 0z m-85-149l85 0 0 21-85 0z m128 384l-384 0c-12 0-21-10-21-21l0-448c0-24 19-43 42-43l128 0 43 43 213-43 0 85-21 0 0-59-199 40-44-45-120 0c-11 0-21 10-21 22l0 448 384 0 0-278 21 0 0 278c0 11-9 21-21 21z m0-384l21 0 0 43-21 0z m-43 192l-298 0 0 128 298 0z m-21 107l-256 0 0-86 256 0z"/>
<glyph glyph-name="list-1" unicode="&#95;" d="M85 320c-36 0-64-29-64-64 0-35 28-64 64-64 35 0 64 29 64 64 0 35-29 64-64 64z m0-107c-24 0-43 20-43 43 0 24 19 43 43 43 23 0 42-19 42-43 0-23-19-43-42-43z m0 299c-36 0-64-29-64-64 0-35 28-64 64-64 35 0 64 29 64 64 0 35-29 64-64 64z m0-107c-24 0-43 20-43 43 0 24 19 43 43 43 23 0 42-19 42-43 0-23-19-43-42-43z m0-277c-36 0-64-29-64-64 0-35 28-64 64-64 35 0 64 29 64 64 0 35-29 64-64 64z m0-106c-24 0-43 19-43 42 0 24 19 43 43 43 23 0 42-19 42-43 0-23-19-42-42-42z m406 467l0-21-298 0 0 21z m-150-86l-148 0 0 24 148 0z m85 24l0-24-44 0 0 24z m-150-384l150 0 0-20-150 0z m-83 0l41 0 0-20-41 0z m106 171l-106 0 0 21 106 0z m127 21l0-21-85 0 0 21z m-233 62l298 0 0-21-298 0z m0-192l298 0 0-21-298 0z"/>
<glyph glyph-name="load" unicode="&#96;" d="M384 149l-85 0 0 106-85 0 0-106-86 0 126-149z m-150-21l0 106 45 0 0-106 58 0-83-95-80 95z m278 150c0-47-38-85-85-85l-63 0 0 21 63 0c35 0 63 29 63 64 0 19-9 37-24 49-18 15-38 14-60 14 0 0-1 19-1 20-5 73-66 130-138 130-69 0-116-48-137-109 0-1-21 2-23 2-47 0-86-38-86-85 0-47 39-85 86-85l45 0 0-21-45 0c-59 0-107 48-107 106 0 59 48 106 107 106 3 0 6 0 9-1 21 63 81 108 151 108 84 0 153-66 159-149 48 0 86-38 86-85z"/>
<glyph glyph-name="location" unicode="&#123;" d="M384 384c0 71-57 128-128 128-70 0-128-57-128-128 0-102 128-235 128-235 0 0 128 133 128 235z m-234 0c0 59 47 107 106 107 59 0 107-48 107-107 0-72-74-165-107-203-39 45-106 136-106 203z m106 64c-35 0-64-29-64-64 0-35 29-64 64-64 36 0 64 29 64 64 0 35-28 64-64 64z m0-107c-23 0-42 20-42 43 0 24 19 43 42 43 24 0 43-19 43-43 0-23-19-43-43-43z m256 43l0-105-21 0 0 68-65-36 0 24z m-21-231l21 0 0-68-149-85-213 85-150-85 0 296 86 50 0-24-65-38 0-247 118 67 9 5 10-4 203-81 130 74z m0 82l21 0 0-41-21 0z"/>
<glyph glyph-name="medicament" unicode="&#124;" d="M299 320l-86 0 0-64-64 0 0-85 64 0 0-64 86 0 0 64 64 0 0 85-64 0z m42-85l0-43-64 0 0-64-42 0 0 64-64 0 0 43 64 0 0 64 42 0 0-64z m86 192l-64 0c0 47-39 85-86 85l-42 0c-48 0-86-38-86-85l-64 0c-47 0-85-39-85-86l0-256c0-47 38-85 85-85l342 0c47 0 85 38 85 85l0 256c0 47-38 86-85 86z m-192 64l42 0c36 0 64-29 64-64l-170 0c0 35 28 64 64 64z m-214-406l0 256c0 36 29 64 64 64l0-384c-35 0-64 29-64 64z m470 0c0-35-29-64-64-64l0 256-22 0 0-256-298 0 0 384 320 0c35 0 64-28 64-64z m-86 278l22 0 0-43-22 0z"/>
<glyph glyph-name="money" unicode="&#125;" d="M276 256l0-22c0-11 12-20 23-20l22 0c23 0 40-20 40-44l0-21c0-23-20-42-40-42l0-41-24 0 0 41c-24 0-42 19-42 42l0 23 21 0 0-23c0-12 12-21 23-21l22 0c11 0 20 9 20 21l0 21c0 12-9 23-20 23l-22 0c-23 0-44 18-44 41l0 22c0 23 18 42 42 42l0 43 24 0 0-43c20 0 42-20 42-43l-21 0c0 14-10 23-21 23l-22 0c-11 0-23-11-23-22z m-192-162l0-22c-48 16-84 57-84 120 0 61 77 158 101 185l-36 73 149 0-42-85-55 0c-31-38-96-123-96-172 0-53 29-85 63-99z m37 292l37 0 22 40-80 0z m391-216c0-111-90-170-202-170-112 0-202 58-202 170 0 83 115 219 143 250l-37 92 192 0-37-92c3-4 8-10 14-16l-17-13c-4 5-8 11-12 15l-88 0c-43-48-137-169-137-235 0-110 98-149 181-149 83 0 181 39 181 149 0 29-18 68-42 107l17 13c26-42 46-86 46-121z m-241 256l78 0 25 66-128 0z m152-109l17 13c-9 13-19 26-28 37l-16-13c9-12 18-24 27-37z"/>
<glyph glyph-name="monitor" unicode="&#126;" d="M469 512l-426 0c-24 0-43-19-43-43l0-341c0-23 19-43 43-43l149 0 0-64-64 0 0-21 256 0 0 21-64 0 0 64 149 0c24 0 43 20 43 43l0 341c0 24-19 43-43 43z m-170-491l-86 0 0 64 86 0z m192 107c0-12-10-21-22-21l-426 0c-12 0-22 9-22 21l0 21 342 0 0 22-342 0 0 298c0 12 10 22 22 22l426 0c12 0 22-10 22-22z m-86 43l43 0 0-22-43 0z"/>
<glyph glyph-name="navigation" unicode="&#92;" d="M385 384l-171-85-85-171 171 85z m-96-145l-49 49 97 48z m-64 34l49-49-97-48z m54 175l0-45-21 0 0 45z m-213-172l41 0 0-21-41 0z m384-21l-44 0 0 21 44 0z m-192-191l0 41 21 0 0-41z m148 372l16 15c10-9 21-19 30-30l-15-15c-10 11-20 21-31 30z m106-180c0-141-115-256-256-256-141 0-256 115-256 256 0 141 115 256 256 256 48 0 92-13 130-36l-15-16c-34 20-73 31-115 31-129 0-235-106-235-235 0-129 106-234 235-234 129 0 234 105 234 234 0 41-10 80-29 114l16 15c22-38 35-82 35-129z"/>
<glyph glyph-name="new-letter" unicode="&#57344;" d="M236 405l-86 0 0 20 86 0z m41-45l-127 0 0-20 127 0z m44 0l0-20 41 0 0 20z m-171-85l171 0 0 24-171 0z m338-106l24 0 0 44-24 0z m24 149l0-64-24 0 0 26-232-166-232 166 0-257 464 0 0 105 24 0 0-108c0-11-10-18-22-18l-466 0c-12 0-24 7-24 18l0 298 44 31 0-26-20-16 0-1 41-30 0 234 298 0c33-34 51-53 85-86l0-148 40 30 0 1-20 16 0 26z m-256-178l170 121 0 154-72 72-269 0 0-226z"/>
<glyph glyph-name="newlist" unicode="&#57345;" d="M323 151l-130 0 0 20 130 0z m-236 65l106 0 0 20-106 0z m236 20l-86 0 0-20 86 0z m-236 41l191 0 0 21-191 0z m424 119c0-64-52-117-117-117-64 0-116 52-116 117 0 19 4 36 12 53l-265 0 0-298 127 0 0-126 232 0 0 126 24 0 0-127c0-11-13-24-24-24l-255 0c-50 52-76 81-128 131l0 318c0 12 0 20 22 20l281 0c22 27 54 43 90 43 65 0 117-51 117-116z m-480-266l101-97 0 97z m459 266c0 53-43 96-96 96-52 0-95-43-95-96 0-53 43-96 95-96 53 0 96 43 96 96z m-403-34l0-20 127 0 0 20z m297-170l24 0 0 44-24 0z m24 257l-24 0 0-45-41 0 0-21 41 0 0-41 24 0 0 41 41 0 0 21-41 0z"/>
<glyph glyph-name="news" unicode="&#57346;" d="M65 365l255 0 0 82-255 0z m21 61l213 0 0-41-213 0z m66-106l-87 0 0-87 87 0z m-25-62l-41 0 0 41 41 0z m66 62l127 0 0-21-127 0z m0-62l127 0 0-25-127 0z m-128-66l255 0 0-20-255 0z m0-65l255 0 0-20-255 0z m404 193l-43 0 0 20 43 0c24 0 43-17 43-41l-21 0c0 11-10 21-22 21z m22-257c0-24-19-42-43-42l-47 0c-11 13-16 26-16 42l0 406c0 23-20 43-44 43l-320 0c-12 0-21-10-21-22l0-406c0-47 38-84 85-84l363 0c35 0 64 28 64 63l0 109-21 0z m-406-42c-35 0-64 28-64 63l0 408 320 0c12 0 23-12 23-23l0-406c0-16 3-29 10-42z m406 237l21 0 0-45-21 0z"/>
<glyph glyph-name="notes" unicode="&#57347;" d="M258 468c0 24-20 44-43 44l-172 0c-24 0-43-20-43-44l0-172c0-24 19-42 43-42l172 0c23 0 43 18 43 42z m-24-168c0-12-10-21-21-21l-171 0c-12 0-21 9-21 21l0 170c0 12 9 22 21 22l171 0c11 0 21-10 21-22z m235-42l-128 0c-24 0-42-21-42-44l0-128c0-24 18-41 42-41l64 0c41 41 66 63 107 105l0 64c0 23-20 44-43 44z m-63-185l0 55c0 12 8 23 20 23l55 0-38-39z m85 99l-65 0c-24 0-44-20-44-44l0-63-41 0c-12 0-21 9-21 21l0 128c0 11 9 23 21 23l128 0c11 0 22-12 22-23z m-236-3c0 24-20 44-44 44l-127 0c-24 0-42-20-42-44l0-128c0-23 18-41 42-41l127 0c24 0 44 18 44 41z m-21-127c0-12-10-21-21-21l-129 0c-12 0-22 9-22 21l0 129c0 12 10 21 22 21l129 0c11 0 21-9 21-21z m-172 408l131 0 0-20-131 0z m0-65l86 0 0-20-86 0z m428-41l21 0c0-24-19-45-42-45l-128 0c-24 0-42 19-42 43l0 128c0 23 18 42 42 42l128 0c23 0 42-17 42-41l-21 0c0 10-10 21-21 21l-128 0c-12 0-21-10-21-22l0-128c0-12 9-19 21-19l128 0c11 0 21 7 21 21z m1 86l21 0 0-45-21 0z"/>
<glyph glyph-name="notifications" unicode="&#57348;" d="M426 235l0 85c0 71-58 128-130 128l0 21c0 24-19 43-43 43-23 0-43-19-43-43l0-21c-68 0-127-57-127-128l0-85-61-129 468 0z m-192 234c0 12 9 22 21 22 12 0 21-10 21-22l0-21-42 0z m-135-257l177 0 0 23-169 0 0 85c0 59 48 103 106 103l86 0c58 0 107-44 107-103l0-90 2-4 48-97-400 0z m221 23l41 0 0-23-41 0z m-21-171l21 0c0-35-29-64-64-64-35 0-64 29-64 64l21 0c0-24 20-42 43-42 24 0 43 18 43 42z"/>
<glyph glyph-name="office" unicode="&#57349;" d="M322 277c0 12-9 22-21 22l-43 0c-12 0-21-10-21-22l0-42c0-12 9-22 21-22l43 0c12 0 21 10 21 22z m-23-44l-41 0 0 45 41 0z m150 44c0 12-9 22-21 22l-43 0c-12 0-21-10-21-22l0-42c0-12 9-22 21-22l43 0c12 0 21 10 21 22z m-20-44l-44 0 0 45 44 0z m-107 172c0 12-9 21-21 21l-43 0c-12 0-21-9-21-21l0-43c0-12 9-21 21-21l43 0c12 0 21 9 21 21z m-23-40l-41 0 0 41 41 0z m150 40c0 12-9 21-21 21l-43 0c-12 0-21-9-21-21l0-43c0-12 9-21 21-21l43 0c12 0 21 9 21 21z m-20-40l-44 0 0 41 44 0z m-278-108c0 11-10 21-22 21l-42 0c-12 0-22-10-22-21l0-43c0-12 10-21 22-21l42 0c12 0 22 9 22 21z m-65 1l45 0 0-45-45 0z m65-131c0 12-10 21-22 21l-42 0c-12 0-22-9-22-21l0-43c0-11 10-21 22-21l42 0c12 0 22 10 22 21z m-65 0l45 0 0-41-45 0z m405 299l20 0 0-41-20 0z m0-404l-86 0 0 126-127 0 0-126-85 0 0 446c0 12 12 24 27 24l246 0c15 0 25-11 25-21l21 0c0 24-22 41-49 41l-243 0c-27 0-48-20-48-44l0-128-129 0c-24 0-43-19-43-42l0-298 299 0 0 127 86 0 0-127 126 0 0 340-20 0z m-319 0l-148 0 0 276c0 12 7 21 19 21l129 0z"/>
<glyph glyph-name="oil" unicode="&#57350;" d="M512 512l0-20-470 0 0-127 20 0 0-25-20 0 0-168 20 0 0-21-20 0 0-130 425 0 0 130-20 0 0 21 20 0 0 127 24 0 0-127 21 0 0-21-21 0 0-130 21 0 0-21-512 0 0 21 21 0 0 130-21 0 0 21 21 0 0 168-21 0 0 25 21 0 0 127-21 0 0 20z m-65-172l65 0 0 25-65 0z m-192 22c0 0 86-81 86-128 0-47-39-86-86-86-47 0-85 39-85 86 0 47 85 128 85 128z m0-30c-30-32-64-76-64-98 0-36 29-64 64-64 35 0 64 28 64 64 0 22-34 66-64 98z m0 94c94 0 171-77 171-171 0-94-77-171-171-171-94 0-171 77-171 171 0 94 77 171 171 171z m0-22c-82 0-149-67-149-149 0-82 67-149 149-149 83 0 150 67 150 149 0 82-67 149-150 149z m212 46l0-44 24 0 0 44z"/>
<glyph glyph-name="onlinepay" unicode="&#57351;" d="M470 406l-342 0c-23 0-42-19-42-43l0-192c0-24 19-40 42-40l171 0 0-45-278 0 0 384c0 11 10 22 22 22l235 0c11 0 21-11 21-22l0-20 21 0 0 20c0 23-19 42-42 42l-235 0c-24 0-43-19-43-42l0-427c0-24 19-43 43-43l235 0c23 0 42 19 42 43l0 88 150 0c23 0 42 16 42 40l0 192c0 24-19 43-42 43z m-171-363c0-12-10-19-21-19l-235 0c-12 0-22 7-22 19l0 22 278 0z m193 130c0-12-10-22-22-22l-342 0c-12 0-21 10-21 22l0 191c0 12 9 21 21 21l342 0c12 0 22-9 22-21z m-365 277l0 21 66 0 0-21z m323-129c0 12-10 23-21 23l-44 0c-11 0-21-11-21-23l0-23c0-11 10-20 21-20l44 0c11 0 21 9 21 20z m-24-22l-41 0 0 21 41 0z m-127-83l151 0 0-24-151 0z m-127 0l86 0 0-24-86 0z"/>
<glyph glyph-name="option" unicode="&#57352;" d="M214 426c-117 0-214-96-214-213 0-117 96-213 213-213 117 0 214 94 214 214l-213 0z m190-236c-11-96-92-170-191-170-106 0-191 87-191 192 0 99 75 181 171 192l0-214z m32 247c-48 48-113 75-181 75l0-257 257 0c0 69-28 134-76 182z m-160 52c54-5 106-29 145-68 39-38 64-90 69-145l-214 0z m-202-275c0-38 15-73 42-99l-15-16c-31 31-48 71-48 115z m100-134c13-4 26-6 40-6l0-21c-18 0-31 2-46 6z"/>
<glyph glyph-name="package" unicode="&#57353;" d="M469 512l-426 0c-24 0-43-19-43-43l0-426c0-24 19-43 43-43l426 0c24 0 43 19 43 43l0 426c0 24-19 43-43 43z m22-469c0-12-10-22-22-22l-426 0c-12 0-22 10-22 22l0 341 342 0 0 21-342 0 0 64c0 12 10 22 22 22l426 0c12 0 22-10 22-22z m-192 149c0-35 28-64 64-64l0-43-43 0 0-21 107 0 0 21-43 0 0 43c35 0 64 29 64 64l0 85-149 0z m21 64l107 0 0-64c0-23-20-43-43-43l-21 0c-24 0-43 20-43 43z m85 149l43 0 0-21-43 0z"/>
<glyph glyph-name="pallete" unicode="&#57354;" d="M107 85c0-11-10-21-22-21-11 0-21 10-21 21 0 12 10 22 21 22 12 0 22-10 22-22z m405 43l0-85c0-24-19-43-43-43l-384 0c-47 0-85 38-85 85 0 0 0 0 0 1 0-1 0 383 0 383 0 24 19 43 43 43l85 0c24 0 43-19 43-43l0-128-22-21-128 0 0-43 86 0 0-21-86 0 0-115c2 2 3 3 4 5l271 271c17 16 44 17 61 0 0 0 60-60 60-60 17-17 17-44 0-60l-104-105-31 0 22 22-90 90-28-27 56-56-15-15-56 56-91-92c1 0 3 1 5 1l256 0 0-150 43 0 0 150 43 0 0-22-22 0 0-128 64 0c12 0 22 10 22 22l0 85c0 12-10 21-22 21l0 22c24 0 43-19 43-43z m-491 277l128 0 0 64c0 12-9 22-21 22l-85 0c-12 0-22-10-22-22z m0-64l128 0 0 43-128 0z m298-112l28 28-91 90-27-27z m-47 133l90-90 40 40c8 8 8 22 0 30 0 0-60 60-60 60-8 8-22 8-30 0z m-80-341l0 128-107 0c-35 0-64-28-64-64 0-35 29-64 64-64z m64 0l0 128-43 0 0-128z m64 0l0 128-43 0 0-128z"/>
<glyph glyph-name="pants" unicode="&#57355;" d="M427 448l0 43c0 11-10 21-22 21l-42 0 0-21 42 0 0-43-298 0 0 43 128 0 0 21-128 0c-12 0-22-10-22-21l0-43-85-405 128-43 128 277 128-277 128 43z m-310-422l-92 31 7 35 100-33z m139 273c-8 0-16-5-19-13l-96-208-104 35 66 314 110 0 0-43 22 0 0 43 42 0 0-86 22 0 0 86 110 0 66-314-104-35-96 208c-3 8-11 13-19 13z m139-273l-15 33 100 33 7-35z m-75 465l-43 0 0 21 43 0z"/>
<glyph glyph-name="percent" unicode="&#57356;" d="M256 512c-141 0-256-115-256-256 0-141 115-256 256-256 141 0 256 115 256 256 0 141-115 256-256 256z m0-490c-129 0-235 105-235 234 0 129 106 235 235 235 129 0 234-106 234-235 0-129-105-234-234-234z m-21 309c0 29-24 53-54 53-29 0-53-24-53-53 0-30 24-54 53-54 30 0 54 24 54 54z m-54-32c-17 0-32 14-32 32 0 17 15 32 32 32 18 0 32-15 32-32 0-18-14-32-32-32z m150-64c-30 0-54-24-54-54 0-29 24-53 54-53 29 0 53 24 53 53 0 30-24 54-53 54z m0-86c-18 0-32 15-32 32 0 18 14 32 32 32 17 0 32-14 32-32 0-17-15-32-32-32z m39 206l-149-149-15 15 149 149z m-192-192l-21-21-15 15 21 21z"/>
<glyph glyph-name="personal" unicode="&#57357;" d="M512 43l0-22c0-11-10-21-22-21l-43 0 0 24 44 0 0 19c0 78-62 143-139 149l-97-124-96 124c-77-6-138-71-138-149l0-19 299 0 0-24-300 0c-12 0-20 10-20 21l0 22c0 94 76 171 170 171l85-107 86 107c94 0 171-77 171-171z m-151-43l45 0 0 24-45 0z m-234 384l0 43c0 47 38 85 85 85l170 0 0-42c0-13-3-25-8-36 5-15 9-31 9-50 0-82-57-170-128-170-71 0-128 88-128 170z m21 22l150 0c35 0 63 28 63 64l0 22-149 0c-35 0-64-30-64-65z m0-21c0-75 53-150 107-150 54 0 107 74 107 150 0 9-1 18-3 26-16-16-37-26-61-26z"/>
<glyph glyph-name="personal-data" unicode="&#57358;" d="M86 128l0-18 172 0 0 18c0 34-20 63-49 77 16 11 26 30 26 51 0 36-29 64-64 64-35 0-64-28-64-64 0-21 11-40 27-51-29-14-48-43-48-77z m42 128c0 24 19 43 43 43 23 0 42-19 42-43 0-23-19-42-42-42-24 0-43 19-43 42z m43-61c35 0 64-30 64-64l-128 0c0 34 28 64 64 64z m255 83l-127 0 0 21 127 0z m0-65l-127 0 0 24 127 0z m-82-62l0 21 82 0 0-21z m147-65c0-36-29-62-64-62l-342 0c-35 0-64 26-64 62l0 256c0 35 29 64 64 64l108 0 0-41 127 0 0 41 107 0c35 0 64-28 64-62l21 0c0 48-38 86-85 86l-107 0 0 82-127 0 0-82-108 0c-47 0-85-41-85-88l0-256c0-48 38-86 85-86l342 0c47 0 85 38 85 86l0 127-21 0z m-277 406l85 0 0-107-85 0z m277-193l21 0 0-41-21 0z"/>
<glyph glyph-name="phone" unicode="&#57359;" d="M363 512l-214 0c-23 0-42-19-42-43l0-426c0-24 19-43 42-43l214 0c23 0 42 19 42 43l0 213-21 0 0-171-64 0 0-21 64 0 0-21c0-12-10-22-21-22l-214 0c-11 0-21 10-21 22l0 21 64 0 0 21-64 0 0 342 256 0 0-43 21 0 0 85c0 24-19 43-42 43z m21-64l-256 0 0 21c0 12 10 22 21 22l214 0c11 0 21-10 21-22z m0-107l21 0 0-42-21 0z m-128-234c12 0 21-10 21-22 0-11-9-21-21-21-12 0-21 10-21 21 0 12 9 22 21 22z"/>
<glyph glyph-name="photo" unicode="&#57360;" d="M469 384l-64 0-42 85-171 0-43-85-106 0c-24 0-43-19-43-43l0-256c0-23 19-42 43-42l426 0c24 0 43 19 43 42l0 256c0 24-19 43-43 43z m22-85l0-214c0-11-10-21-22-21l-426 0c-12 0-22 10-22 21l0 214 43 0 0 21-43 0 0 21c0 12 10 22 22 22l119 0 43 85 144 0 43-85 77 0c12 0 22-10 22-22l0-21-43 0 0-21z m-214 64c-70 0-128-58-128-128 0-71 58-128 128-128 71 0 128 57 128 128 0 70-57 128-128 128z m0-235c-59 0-106 48-106 107 0 58 47 106 106 106 59 0 107-48 107-106 0-59-48-107-107-107z m-128 171l-42 0 0 21 42 0z"/>
<glyph glyph-name="plants" unicode="&#57361;" d="M43 427l-43 0 0-128c0-165 134-299 299-299l128 0 0 43c0 212-172 384-384 384z m256-128l0 0 0-156-86 85 0 135c32-17 61-39 86-64z m-107 74l0-123-156 155 7 0c53 0 103-11 149-32z m-171 17l199-198-177 0c-14 33-22 69-22 107z m32-219l188 0 149-150-91 0c-107 0-200 61-246 150z m352-134l-85 85 0 154c53-63 85-144 85-233z m107 475l0-43c0-81-33-155-85-208-4 6-8 13-11 19 46 50 75 116 75 189l0 7-121-121-15 15 120 121c-2 0-4 0-6 0-73 0-139-29-189-75-6 4-13 7-19 11 53 52 127 85 208 85z"/>
<glyph glyph-name="polo" unicode="&#57362;" d="M256 256l21 0 0-43-21 0z m256 85l0-64c0-11-10-21-21-21l-64 0 0-256-342 0 0 256-64 0c-11 0-21 10-21 21l0 64c0 71 57 128 128 128l21 0 0 22c0 11 10 21 22 21l170 0c12 0 22-10 22-21l0-22 21 0c71 0 128-57 128-128z m-341 150l85-86 85 86z m105-96l65-32 0 98z m-105-32l65 32-65 66z m320-22c0 59-48 107-107 107l-21 0 0-85c0-8-4-15-11-18-6-4-14-5-20-1 0 0-55 27-55 27l0-72-21 0 0 83-76-38c-6-4-15-3-21 1-6 3-10 10-10 18l0 85-21 0c-59 0-107-48-107-107l0-64 64 0 0 43 22 0 0-299 298 0 0 299 22 0 0-43 64 0z"/>
<glyph glyph-name="position" unicode="&#57363;" d="M448 361l-87 0 0 20 87 0c23 0 43-16 43-41l-22 0c0 11-9 21-21 21z m23-148l20 0 0-87c0-24-20-43-43-43l-255 0 0 86-151 0 0-169-21 0 0 512 21 0 0-45 278 0 0-298-96-62 224 0c12 0 23 7 23 19z m-172-21l0 255-257 0 0-255z m-85-23l0-46 65 46z m257 85l20 0 0 45-20 0z"/>
<glyph glyph-name="presentation" unicode="&#57364;" d="M257 92l112-67-11-18-101 60-101-60-10 18z m-172 116l0 167 86 0 0-167z m21 20l44 0 0 127-44 0z m106-20l0 126 86 0 0-126z m24 20l41 0 0 85-41 0z m106-20l0 211 84 0 0-211z m20 20l41 0 0 171-41 0z m126-63c0-12-7-22-19-22l-424 0c-12 0-21 10-21 22l0 297c0 11 9 23 21 23l424 0c12 0 21-11 21-25l22 0c0 25-19 45-43 45l-424 0c-24 0-45-20-45-43l0-297c0-24 21-42 45-42l424 0c24 0 43 18 43 42l0 169-24 0z m0 210l24 0 0 44-24 0z"/>
<glyph glyph-name="price-tag" unicode="&#57365;" d="M491 512l-192 0c-117-117-182-182-299-299 83-83 130-130 213-213 117 117 182 182 299 299l0 192c0 11-10 21-21 21z m0-204l-278-278-183 183 52 52 60-59 15 15-60 60 210 210 184 0z m-107 12c35 0 64 29 64 64 0 35-29 64-64 64-35 0-64-29-64-64 0-35 29-64 64-64z m0 107c23 0 43-19 43-43 0-23-20-43-43-43-24 0-43 20-43 43 0 24 19 43 43 43z m-185-249l43-42-15-15-43 42z"/>
<glyph glyph-name="print" unicode="&#57366;" d="M382 213l0 20 44 0 0-20z m-41 0l0 20-42 0 0-20z m-193 127l131 0 0 21-131 0z m0 66l213 0 0 20-213 0z m299-237l0-21-21 0 0-107c0-24-19-41-43-41l-256 0c-24 0-41 17-41 41l0 107-24 0 0 21z m-41-21l-299 0 0-107c0-12 8-20 20-20l256 0c12 0 23 8 23 20z m85-22c0-12 0-21-24-21l0-22c24 0 45 19 45 43l0 22-21 0z m-449-21l0-22c-21 0-42 19-42 43l0 149c0 48 38 86 86 86l0 107c0 23 17 44 41 44l256 0c24 0 43-21 43-44l0-107c49 0 85-38 85-86l-21 0c0 38-29 64-64 64l0-64-340 0 0 64c-38 0-65-28-65-64l0-149c0-12 0-21 21-21z m65 194l299 0 0 169c0 11-11 24-23 24l-256 0c-12 0-20-13-20-24z m384-107l21 0 0 41-21 0z"/>
<glyph glyph-name="products" unicode="&#57367;" d="M320 449l-256-256 192-192 256 256 0 192z m-64-417l-162 161 52 52 162-161z m235 234l-168-167-162 159 168 166 162 0z m-96 13c29 0 53 24 53 53 0 29-24 53-53 53-30 0-54-24-54-53 0-29 24-53 54-53z m0 85c17 0 32-14 32-32 0-18-15-32-32-32-18 0-32 14-32 32 0 18 14 32 32 32z m-365-108l17-16-15-15-32 31 256 254 105 0 0-20-96 0z m417 234l-41 0 0 20 41 0z"/>
<glyph glyph-name="profit" unicode="&#57368;" d="M149 234l-149-150 0-84 491 0 0 362-235-235z m322 81l0-294-450 0 0 55 128 128 107-107z m41 197l0-106-21 0 0 69-235-235-107 107-56-57-15 15 71 72 107-106 220 221-70 0 0 20z m-483-286l-15 15 21 22 15-15z"/>
<glyph glyph-name="property" unicode="&#57369;" d="M405 215c-59 0-106-48-106-106 0-59 47-106 106-106 59 0 106 47 106 106 0 58-47 106-106 106z m0-191c-47 0-85 38-85 85 0 47 38 85 85 85 25 0 47-11 63-29l-63-62-35 35-15-15 50-50 75 75c6-12 10-25 10-39 0-47-38-85-85-85z m-150 361c-35 0-65-29-65-64l0-65 130 0 0 65c0 35-30 64-65 64z m41-108l-85 0 0 44c0 23 19 42 43 42 23 0 42-19 42-42z m77 88l-30 30 15 15 30-30z m-183-174l86 0 0-20-65 0 0-171-147 0 0 257-63 0 255 255 72-72-15-15-57 56-203-204 31 0 0-252 106 0z m270 86l-57 57 15 15 93-93-86 0 0 21z"/>
<glyph glyph-name="protected" unicode="&#57370;" d="M128 279c0-71 57-128 128-128 71 0 128 57 128 128 0 71-57 128-128 128-71 0-128-57-128-128z m128 107c31 0 59-14 78-35l-99-100-35 35-15-15 50-50 112 113c10-16 16-35 16-55 0-59-48-107-107-107-59 0-107 48-107 107 0 59 48 107 107 107z m64 104l-41 0 0 21 41 0z m192-83l0-150c0-141-256-256-256-256 0 0-256 115-256 256l0 150c59 0 107 45 107 104l127 0 0-21-108 0c-9-51-50-94-105-103l0-130c0-100 162-198 235-232 73 34 235 132 235 232l0 130c-54 9-96 52-105 103l-22 0 0 21 42 0c0-59 48-104 106-104z"/>
<glyph glyph-name="pulse" unicode="&#57371;" d="M373 325c-5 8-16 7-19 0l-76-152c0 0-97 194-97 194-4 8-15 8-19 1l-61-112-83 0c58-124 238-214 238-214 0 0 181 90 239 214l-83 0z m-117-261c-33 18-145 86-201 168l52 0c4 0 7 3 9 7l55 100c0 0 97-195 97-195 4-8 15-8 19 0l77 153 33-58c2-4 5-7 9-7l52 0c-56-82-168-150-202-168z m-230 234l-23 0c-2 10-3 21-3 32 0 77 62 139 139 139 49 0 93-25 117-63 25 38 69 63 118 63 66 0 121-48 135-106l-22 0c-14 48-59 85-113 85-41 0-78-21-100-54-8-13-27-13-36 0-21 34-59 54-99 54-65 0-118-53-118-118 0-11 2-22 5-32z m486 20c0-6-1-13-3-20l-22 0c2 7 3 14 4 20z"/>
<glyph glyph-name="purchase" unicode="&#57372;" d="M512 384l0 43-43 0c-47 0-85-39-85-86l0-5c-24 17-54 27-85 27l0 21c0 71-58 128-128 128-71 0-128-57-128-128l0-149-43 21 0-213c0-24 19-43 43-43l426 0c24 0 43 19 43 43l0 213-65-32c-2 28-11 53-26 75l6 0c47 0 85 38 85 85z m-448 0c0 59 48 107 107 107 48 0 88-32 101-76l-85-43 10-19 79 40c1-3 1-6 1-9l0-52-90-45 10-19 80 40 0-84-21-11-85 43-86-43-21 11z m427-162l0-179c0-12-10-22-22-22l-426 0c-12 0-22 10-22 22l0 21 342 0 0 21-342 0 0 137 64-32 86 42 85-42 85 42 86-42z m-64-9l-86 43-42-21 0 106c70 0 128-57 128-128z m-22 107l0 21c0 36 29 64 64 64l22 0 0-21c0-35-29-64-64-64z m43-256l-43 0 0 21 43 0z"/>
<glyph glyph-name="qrcode" unicode="&#57373;" d="M107 404l0-297-22 0 0 297z m21-297l21 0 0 298-21 0z m64 0l21 0 0 298-21 0z m107 64l-22 0 0 234-21 0 0-256 64 0 0 256-21 0z m64 106l21 0 0 128-21 0z m0-170l21 0 0 42-21 0z m0 85l21 0 0 43-21 0z m42 213l0-297 22 0 0 297z m-405 107l0-127 21 0 0 106 106 0 0 21z m385 0l0-21 106 0 0-106 21 0 0 127z m106-491l-106 0 0-21 127 0 0 127-21 0z m-234 86l63 0 0 21-63 0z m-236 20l-21 0 0-127 127 0 0 21-106 0z"/>
<glyph glyph-name="reload" unicode="&#57374;" d="M512 300l0 169-55-55c-47 60-120 98-201 98-141 0-256-114-256-256 0-141 115-256 256-256 141 0 256 115 256 255l-86 0c0-92-76-170-170-170-94 0-171 77-171 171 0 94 77 171 171 171 58 0 109-29 140-73l-55-54z m-99 66c-36 51-95 82-157 82-106 0-192-86-192-192 0-105 86-192 192-192 98 0 180 75 190 171l43 0c-11-120-111-213-233-213-129 0-234 105-234 234 0 129 105 235 234 235 72 0 139-33 184-90l15-19 36 36 0-97-98 0 30 30z m-199-46l0-21c0-12 9-23 21-23l21 0c23 0 44-17 44-41l0-21c0-24-21-43-45-43l0-21-21 0 0 21c-23 0-40 19-40 43l0 21 20 0 0-21c0-12 9-20 21-20l21 0c12 0 20 8 20 20l0 21c0 12-8 20-20 20l-21 0c-24 0-41 20-41 44l0 21c0 24 17 43 40 43l0 23 21 0 0-23c24 0 43-18 43-42l-21 0c0 10-9 20-21 20l-21 0c-12 0-21-9-21-21z"/>
<glyph glyph-name="remove" unicode="&#57375;" d="M427 448l-106 0c0 34-29 64-64 64-35 0-64-30-64-64l-106 0c-12 0-22-9-22-21l0-42c0-12 10-22 20-22l0-318c0-24 21-45 45-45l254 0c24 0 42 21 42 45l0 318c11 0 21 10 21 22l0 42c0 12-8 21-20 21z m-170 43c23 0 42-19 42-43l-85 0c0 24 20 43 43 43z m146-446c0-12-7-20-19-20l-254 0c-12 0-25 8-25 20l0 317 298 0z m23 338l-341 0 0 45 341 0z m-255-318l-21 0 0 256 21 0z m85 0l-21 0 0 256 21 0z m86 0l-21 0 0 171 21 0z m0 212l-21 0 0 44 21 0z"/>
<glyph glyph-name="roller" unicode="&#57376;" d="M427 213c11 0 21-9 21-21 0-12-10-21-21-21-12 0-22 9-22 21 0 12 10 21 22 21z m64 150l0 64c0 35-29 64-64 64l-107 0 0-43 85 0c24 0 43-19 43-43 0-23-19-42-43-42l-85 0c0-33-15-64-42-85-12-10-28-16-43-19l0-46c0-23-19-42-43-42-24 0-43 19-43 42l0 41c-60-10-129-57-128-106 1-11 10-20 22-20l277 0c0 94 76 171 171 171l0 21 21 0 0-43-21 0c-83 0-150-67-150-149l150 0 0 107 21 0 0-150c0-23-19-42-43-42l-4 0c-9-25-32-43-60-43-28 0-51 18-60 43l-50 0c-9-25-33-43-60-43-28 0-52 18-60 43l-51 0c-9-25-32-43-60-43-35 0-64 29-64 64 0 19 9 37 22 48-13 7-22 21-22 37 0 71 100 128 171 128l42 0c47 0 86 39 86 86l0 0 0 85 0 43c0 11 9 21 21 21l107 0c47 0 85-38 85-85l0-64z m-384-299c0 24-19 43-43 43-24 0-43-19-43-43 0-23 19-43 43-43 24 0 43 20 43 43z m64 0c0 17 6 31 16 43l-76 0c11-12 17-26 17-43z m106 0c0 24-19 43-42 43-24 0-43-19-43-43 0-23 19-43 43-43 23 0 42 20 42 43z m171 0c0 24-19 43-43 43-23 0-42-19-42-43 0-23 19-43 42-43 24 0 43 20 43 43z m43 43l-38 0c10-12 16-26 16-43 12 0 22 10 22 21z m-209 0c10-12 17-26 17-43l42 0c0 17 7 31 17 43z m-69 149l-42 0 0-43c0-11 9-21 21-21 12 0 21 10 21 21z m107 171l0-43 85 0c12 0 22 10 22 21 0 12-10 22-22 22z"/>
<glyph glyph-name="safe" unicode="&#57377;" d="M450 408c0 23-19 42-42 42l-300 0c-24 0-43-19-43-42l0-300c0-24 19-43 43-43l300 0c23 0 42 19 42 43z m-24-299c0-11-10-20-22-20l-297 0c-12 0-21 9-21 20l0 298c0 12 9 23 21 23l297 0c12 0 22-11 22-23z m-170 190c-24 0-43-19-43-43 0-23 19-42 43-42 23 0 43 19 43 42 0 24-20 43-43 43z m0-64c-12 0-21 10-21 21 0 12 9 22 21 22 12 0 21-10 21-22 0-11-9-21-21-21z m99 136l-32-32c-18 15-41 24-67 24-26 0-49-9-67-24l-32 32-15-16 32-31c-15-19-25-42-25-68 0-25 10-49 25-67l-32-32 15-15 32 32c18-15 41-24 67-24 26 0 49 9 67 24l32-32 15 15-32 32c15 18 25 42 25 67 0 26-10 49-25 68l32 31z m-14-115c0-47-38-85-85-85-47 0-86 38-86 85 0 47 39 86 86 86 47 0 85-39 85-86z m150 43l21 0 0-213c0-48-38-86-85-86l-342 0c-47 0-85 38-85 86l0 341c0 47 38 85 85 85l342 0c47 0 85-38 85-82l-21 0c0 34-29 62-64 62l-342 0c-35 0-64-30-64-65l0-341c0-36 29-62 64-62l342 0c35 0 64 26 64 62z m0 86l21 0 0-41-21 0z"/>
<glyph glyph-name="sale" unicode="&#57378;" d="M256 512c-141 0-256-100-256-224 0-124 115-224 256-224 20 0 39 2 58 6l70-70 0 94c76 39 128 111 128 194 0 124-115 224-256 224z m118-399l-11-6 0-55-42 41-11-2c-18-4-37-6-54-6-129 0-235 91-235 203 0 112 106 203 235 203 129 0 235-91 235-203 0-71-45-138-117-175z m-193 207c30 0 54 24 54 53 0 30-24 54-54 54-29 0-53-24-53-54 0-29 24-53 53-53z m0 85c18 0 32-14 32-32 0-17-14-32-32-32-17 0-32 15-32 32 0 18 15 32 32 32z m150-128c-30 0-54-23-54-53 0-29 24-53 54-53 29 0 53 24 53 53 0 30-24 53-53 53z m0-85c-18 0-32 14-32 32 0 18 14 32 32 32 17 0 32-14 32-32 0-18-15-32-32-32z m-46 121l-128-128-15 15 128 128z m42 42l-15 15 43 43 15-15z"/>
<glyph glyph-name="save" unicode="&#57379;" d="M128 107l86 0 0-106 82 0 0 106 88 0-126 150z m148 21l0-106-42 0 0 106-59 0 82 95 81-95z m236 149c0-47-38-84-85-84l-66 0 0 21 66 0c35 0 63 28 63 63 0 19-9 38-24 50-18 14-38 14-60 14 0 0-1 18-1 19-5 73-66 130-138 130-69 0-116-48-137-109 0-1-21 2-23 2-47 0-86-38-86-85 0-47 39-84 86-84l41 0 0-21-41 0c-59 0-107 47-107 106 0 59 48 106 107 106 3 0 6-1 9-1 21 62 81 107 151 107 84 0 153-65 159-149 48 0 86-38 86-85z"/>
<glyph glyph-name="save-document" unicode="&#57380;" d="M426 150l0 106-85 0 0-106-85 0 126-149 130 149z m-124-21l62 0 0 107 42 0 0-107 59 0-83-95z m-3 169l-213 0 0 20 213 0z m-213-42l41 0 0-20-41 0z m86-20l0 20 127 0 0-20z m127 127l-106 0 0 20 106 0z m-278-276l0 276 85 0c24 0 42 20 42 44l0 83 193 0c12 0 23-7 23-19l0-88 21 0 0 88c0 23-20 40-44 40l-213 0c-50-49-76-75-128-125l0-299c0-24 19-43 42-43l257 0 0 20-257 0c-12 0-21 11-21 23z m85 296l-76 0 97 100 0-76c0-12-9-24-21-24z m258-41l21 0 0-44-21 0z"/>
<glyph glyph-name="search" unicode="&#57381;" d="M384 427l-41 0 0 20 41 0z m-298-108c0 12 9 22 21 22l342 0 0-65 21 0 0 128c0 24-21 43-41 43l0-21c11 0 20-10 20-22l0-43-342 0c-23 0-41-18-41-42l0-232-23 0c-11 0-18 8-18 19l0 362c0 12 7 20 18 20l144 0c8 0 16-3 19-10l37-51 56 0 0 20-43 0-31 41c-7 14-22 24-38 24l-144 0c-23 0-42-20-42-44l0-362c0-23 19-42 42-42 0 0 74 0 171 0l0 23-128 0z m362-319l-73 72c-14-5-29-8-44-8-65 0-117 52-117 117 0 64 52 117 117 117 64 0 117-53 117-117 0-16-3-31-9-45l73-72z m-117 85c53 0 95 43 95 96 0 53-42 96-95 96-53 0-96-43-96-96 0-53 43-96 96-96z m64-2l53-53 34 34-53 53 0 0c-9-14-21-25-34-34z"/>
<glyph glyph-name="security" unicode="&#57382;" d="M491 193l-23 0 0 19c0 46-39 84-85 84-47 0-85-38-85-84l0-19-20 0c-11 0-22-12-22-24l0-85c0-25 13-48 30-61l-241 0c-12 0-21 7-21 19l0 107 192 0 0 20-192 0 0 171 379 0 0-21 23 0 0 147c0 24-20 43-43 43l0-22c14 0 20-9 20-21l0-106-379 0 0 106c0 12 9 24 21 24l211 0 0 20-211 0c-23 0-45-20-45-44l0-424c0-24 22-40 45-40l382 0c47 0 85 35 85 82l0 85c0 12-10 24-21 24z m-170 19c0 35 28 63 63 63 35 0 64-28 64-63l0-19-127 0z m167-128c0-35-26-61-61-61l-85 0c-35 0-65 26-65 61l0 85 211 0z m-85 21l0-21c0-11-9-21-20-21-12 0-21 10-21 21l0 21c0 12 9 22 21 22 11 0 20-10 20-22z m-338 320l0 21 41 0 0-21z m85 0l0 21 41 0 0-21z m-85-171l0 24 41 0 0-24z m85 0l0 24 41 0 0-24z m-85-170l0 24 41 0 0-24z m277 406l-44 0 0 20 44 0z"/>
<glyph glyph-name="send" unicode="&#57383;" d="M0 341l213-128 124-213 175 512z m332-290l-103 178-178 107 404 135-121-122 15-15 121 121z m-41 255l15-15-43-42-15 15z"/>
<glyph glyph-name="send-document" unicode="&#57384;" d="M386 256l-130-149 88 0 0-107 85 0 0 107 83 0z m22-129l0-105-44 0 0 105-61 0 83 95 80-95z m-109 172l-213 0 0 20 213 0z m-41-66l0 21 41 0 0-21z m-172 21l128 0 0-21-128 0z m213 106l-106 0 0 21 106 0z m-275-277l0 277 83 0c24 0 45 20 45 43l0 89 190 0c11 0 22-13 22-25l0-86 21 0 0 86c0 24-20 45-43 45l-214 0c-50-52-76-80-128-130l0-299c0-23 19-41 43-41l256 0 0 20-256 0c-12 0-19 10-19 21z m83 298l-76 0 100 99 0-77c0-12-12-22-24-22z m257-41l21 0 0-41-21 0z"/>
<glyph glyph-name="send-message" unicode="&#57385;" d="M214 257l85 0 0 106 84 0-126 149-130-149 87 0z m-40 127l83 95 80-95-62 0 0-106-41 0 0 106z m251-257l-84 0 0 21 84 0z m-126-41l126 0 0-20-126 0z m168 62l24 0 0-104c0-23-21-44-44-44l-384 0c-23 0-42 21-42 44l0 234c0 24 19 41 42 41l106 0 0-21-106 0c0 0-1 1-2 1l194-136 194 135c-1 1-2 0-2 0l-106 0 0 21 106 0c23 0 42-18 42-41l-21 0c0 3-1 5-2 7l-211-148-211 148c-1-2-2-4-2-7l0-234c0-11 10-23 21-23l384 0c11 0 20 12 20 23z m0 85l24 0 0-41-24 0z"/>
<glyph glyph-name="seo" unicode="&#57386;" d="M491 407l21 0 0-45-21 0z m21 105l0-64-21 0 0 32-212-89 0-185 212-89 0 204 21 0 0-236-255 109-43 0 0-141c0-29-22-53-52-53-29 0-51 24-51 53l0 141-67 0c-23 0-44 17-44 41l0 128c0 23 21 44 44 44l213 0z m-446-298l0 172-22 0c-12 0-19-12-19-23l0-128c0-12 7-21 19-21z m127-20l-62 0 0-141c0-17 14-31 31-31 18 0 31 14 31 31z m65 20l0 172-172 0 0-172z"/>
<glyph glyph-name="settings" unicode="&#57387;" d="M341 255c0 47-38 86-85 86-47 0-85-39-85-86 0-47 38-85 85-85 47 0 85 38 85 85z m-85-64c-35 0-64 29-64 64 0 36 29 64 64 64 35 0 64-28 64-64 0-35-29-64-64-64z m40-150l24 0 0-41-24 0z m149 183l66-36-61-113-66 37c-19-17-40-29-64-38l0 24c21 10 42 23 61 40 0 0 60-34 60-34l41 75-60 34c2 14 5 28 5 42 0 15-3 29-5 43-1 4 55 30 60 33l-41 75c-20-11-41-22-61-33-1-1-26 21-28 22-17 12-35 19-56 26l0 71-86 0 0-71c-31-11-55-26-80-48-20 11-39 22-59 33l-41-75 60-33c-2-14-5-28-5-43 0-14 3-28 5-42l-60-34 41-75 61 34c25-22 47-38 82-49l0-68 41 0 0-21-66 0 0 74c-24 9-43 21-62 38l-65-37-61 113 65 36c-1 10-2 21-2 31 0 11 1 21 2 31l-65 37 61 112 65-36c19 16 38 29 62 37l0 76 131 0 0-76c24-8 45-21 64-37l65 36 62-112-66-37c2-10 3-20 3-31 0-10-1-21-3-31z"/>
<glyph glyph-name="shares" unicode="&#57388;" d="M108 127l-86 0c-11 0-22-9-22-21l0-106 131 0 0 106c0 12-11 21-23 21z m-1-106l-83 0 0 86 83 0z m193 192l-85 0c-12 0-22-10-22-22l0-191 130 0 0 191c0 12-11 22-23 22z m-1-192l-85 0 0 171 85 0z m193 278l-85 0c-12 0-22-11-22-22l0-277 127 0 0 277c0 11-8 22-20 22z m-1-278l-85 0 0 257 85 0z m-233 262l-107 107-57-57-15 15 72 72 106-106 177 178-49 0 0 20 86 0 0-86-21 0 0 49z m-228-14l-15 15 21 21 15-15z"/>
<glyph glyph-name="shipping" unicode="&#57389;" d="M458 170l-26 108c21 2 37 20 37 42 0 24-19 43-42 43l-22 0c-12 0-21-10-21-22l0-42-43 0 0-22 43 0 0-85-85 0 0 235c0 23-19 42-43 42l-213 0c-24 0-43-19-43-42l0-278c0-23 19-42 43-42 0-36 28-64 64-64 35 0 64 28 64 64l213 0c0-36 29-64 64-64 35 0 64 28 64 64 0 32-24 58-54 63z m27-42l-74 0c8 13 21 21 37 21 16 0 29-8 37-21z m-80 213l22 0c11 0 21-9 21-21 0-12-10-21-21-21l-22 0z m-298-277c-24 0-43 19-43 43l85 0c0-24-19-43-42-43z m-64 64c-12 0-22 10-22 21l0 64 128 0 0 22-128 0 0 192c0 11 10 21 22 21l213 0c12 0 21-10 21-21l0-299z m256 0l0 43 85 0c12 0 21 9 21 21l0 85 4 0 27-108c-22-4-41-20-48-41z m149-64c-24 0-43 19-43 43l86 0c0-24-20-43-43-43z m-256 171l43 0 0-22-43 0z"/>
<glyph glyph-name="shirt" unicode="&#57390;" d="M427 469l-43 0 0 22c0 11-10 21-21 21l-214 0c-11 0-21-10-21-21l0-22-43 0c-47 0-85-38-85-85l0-341c0-24 19-43 43-43 0 0 426 0 426 0 23 0 43 19 43 43l0 341c0 47-38 85-85 85z m-278-8l73-74-73-48z m342-418c0-12-10-22-22-22l-128 0 0 171 150 0z m-150 170c-12 0-21-9-21-21l0-171-277 0c-12 0-22 10-22 22l0 341c0 35 29 64 64 64l43 0c0 0 0-109 0-109 0-17 19-27 33-18l95 63-107 107 214 0-107-107 0-235 21 0 0 221c0 0 74-49 74-49 14-9 33 1 33 18l0 109 43 0c35 0 64-29 64-64l0-171z m22 248l0-122-74 48z m-107-354l21 0 0-43-21 0z m128 21c0 12 9 21 21 21 12 0 22-9 22-21 0-12-10-21-22-21-12 0-21 9-21 21z m-341 85l170 0 0-21-170 0z"/>
<glyph glyph-name="shoes" unicode="&#57391;" d="M341 64l43 0 0-21-43 0z m171 85l0-64c0-23-19-42-43-42l-42 0 0 21 42 0c12 0 22 10 22 21l0 22-470 0 0-22c0-11 10-21 22-21l256 0 0-21-256 0c-24 0-43 19-43 42l0 256c71 0 128 58 128 128l85 0c24 0 43-19 43-42l0-22c0-66 38-123 93-152l2 0 0-1c23-11 49-17 76-17 47 0 85-39 85-86z m-384-21c0 59-48 107-107 107l0-107z m363 21c0 36-29 64-64 64-30 0-58 7-82 19l-15-43-20 6 15 47c-17 11-33 25-46 40l-36-53-17 12 40 60c-9 13-16 28-22 44l-69-35-9 19 73 37c-3 13-4 26-4 39l0 22c0 11-10 21-22 21l-65 0c-10-65-61-117-127-127l0-65c71 0 128-57 128-128l342 0z"/>
<glyph glyph-name="shop" unicode="&#57392;" d="M235 277l-150 0 0-170 150 0z m-22-149l-106 0 0 128 106 0z m-85-107l43 0 0-21-43 0z m384 320l0 22-43 149-426 0-43-149 0-22c0-11 10-21 21-21l0-299-21 0 0-21 85 0 0 21-42 0 0 299 426 0 0-299-42 0 0 256-150 0 0-256-64 0 0-21 299 0 0 21-21 0 0 299c11 0 21 10 21 21z m-213-320l0 235 106 0 0-235z m-278 320l0 19 38 131 26 0 0-150z m86 0l0 150 85 0 0-150z m106 0l0 150 86 0 0-150z m107 0l0 150 85 0 0-150z m107 0l0 150 26 0 38-131 0-19z"/>
<glyph glyph-name="shorts" unicode="&#57393;" d="M469 448l0 43c0 11-9 21-21 21l-43 0 0-21 43 0 0-43-384 0 0 43 213 0 0 21-213 0c-12 0-21-10-21-21l0-43-43-405 213-43 43 192 43-192 213 43z m-446-388l6 55 179-39-11-51z m233 153c-10 0-19-7-21-16l-22-101-182 41 31 290 151 0 0-171 22 0 0 171 42 0 0-128 22 0 0 128 151 0 31-290-182-41-22 101c-2 9-11 16-21 16z m59-188l-11 51 179 39 6-55z m48 466l-43 0 0 21 43 0z"/>
<glyph glyph-name="signature" unicode="&#57394;" d="M408 364l26 35 15-15-25-35z m-10-50l-121-165-60-20-25-86-192-43 43 192 86 25 20 60 320 235 43-43-37-50-16 15 25 33-17 17-281-206 91-92 106 144z m-200-171l-20 20-30-30c1-1 1-3 1-5 0-12-9-21-21-21-12 0-21 9-21 21 0 12 9 21 21 21 2 0 3 0 5-1l30 30-20 21-82-24-33-147 147 33z m67 25l-97 97-1-1-15-45 67-66 45 15z"/>
<glyph glyph-name="size" unicode="&#57395;" d="M512 512l0-128-21 0 0 92-185-185-15 15 184 185-91 0 0 21z m-291-306l-15 15-185-184 0 91-21 0 0-128 128 0 0 21-92 0z m-157 178c0 35 29 64 64 64l213 0 0 21-213 0c-47 0-85-38-85-85l0-213 21 0z m85-64l0-64 22 0 0 64c0 12 9 21 21 21l64 0 0 22-64 0c-24 0-43-19-43-43z m107-171l64 0c23 0 43 20 43 43l0 64-22 0 0-64c0-12-9-21-21-21l-64 0z m192 150l21 0 0 42-21 0z m0-171c0-35-29-64-64-64l-213 0 0-21 213 0c47 0 85 38 85 85l0 128-21 0z"/>
<glyph glyph-name="skirt" unicode="&#57396;" d="M427 448l0 43c0 11-10 21-22 21l-42 0 0-21 42 0 0-43-298 0 0 43 128 0 0 21-128 0c-12 0-22-10-22-21l0-43-85-384c0-35 115-64 256-64 141 0 256 29 256 64z m-18-21l24-107-6 0c-36 0-64 29-64 64l0 43z m-260 0l0-43c0-35-28-64-64-64l-6 0 23 107z m107-406c-138 0-223 27-234 43l52 235 11 0c47 0 86 38 86 85l0 43 170 0 0-43c0-47 38-85 86-85l11 0 52-235c-12-16-96-43-234-43z m64 470l-43 0 0 21 43 0z"/>
<glyph glyph-name="slippers" unicode="&#57397;" d="M149 384l-42 0 0 21 42 0z m363-234c0-24-19-43-43-43l-213 0-85 51 0-9c0-23-19-42-43-42l-107 0c-11 0-21 9-21 21l0 277 64 0 0-21-43 0 0-192 134 0 107-64 122 0 0 128c-21 0-40 4-58 12l-41-41-15 15 36 36c-11 7-22 15-31 25l-33-33-15 15 35 35c-13 18-22 40-26 64l-44 0 0 21 64 0c0-70 57-128 128-128 70 0 127-57 128-127z m-363 21l-128 0 0-43 107 0c12 0 21 10 21 21z m342-23c0 52-37 96-86 106l0-126 64 0c12 0 21 9 22 20z"/>
<glyph glyph-name="sneakers" unicode="&#57398;" d="M128 320c-35 0-64-29-64-64 0-35 29-64 64-64 35 0 64 29 64 64 0 35-29 64-64 64z m0-107c-24 0-43 20-43 43 0 24 19 43 43 43 23 0 43-19 43-43 0-23-20-43-43-43z m213-128l43 0 0-21-43 0z m86 150l-43 0c-71 0-128 57-128 128l0 64c0 11-10 21-21 21l-214 0c-11 0-21-10-21-21l0-320c0-24 19-43 43-43l256 0 0 21-256 0c-12 0-22 10-22 22l0 22 470 0 0-22c0-12-10-22-22-22l-42 0 0-21 42 0c24 0 43 19 43 43l0 42c0 48-38 86-85 86z m-406 192l214 0 0-43-214 0z m0-278l0 214 214 0c0-32 10-62 27-86l-35-35 15-15 33 33c9-9 20-17 31-24l-36-36 15-15 41 40c18-7 37-12 58-12l0-64z m384 0l0 64 22 0c35 0 64-28 64-64z"/>
<glyph glyph-name="sound-system" unicode="&#57399;" d="M363 341c0 59-48 107-107 107-59 0-107-48-107-107 0-59 48-106 107-106 59 0 107 47 107 106z m-107-85c-47 0-85 38-85 85 0 47 38 86 85 86 47 0 85-39 85-86 0-47-38-85-85-85z m-64-128c0-35 29-64 64-64 35 0 64 29 64 64 0 35-29 64-64 64-35 0-64-29-64-64z m107 0c0-23-19-43-43-43-23 0-43 20-43 43 0 24 20 43 43 43 24 0 43-19 43-43z m-22 213c0-11-9-21-21-21-12 0-21 10-21 21 0 12 9 22 21 22 12 0 21-10 21-22z m171-128l21 0 0-42-21 0z m21 214l0-171-21 0 0 171c0 35-29 64-64 64l-256 0c-35 0-64-29-64-64l0-342c0-35 29-64 64-64l256 0c35 0 64 29 64 64l0 43 21 0 0-43c0-47-38-85-85-85l-256 0c-47 0-85 38-85 85l0 342c0 47 38 85 85 85l256 0c47 0 85-38 85-85z"/>
<glyph glyph-name="speed" unicode="&#57400;" d="M377 392l-99-99c-6 3-13 6-21 6-24 0-43-19-43-43 0-23 19-43 43-43 23 0 43 20 43 43 0 8-3 15-6 22l98 99z m-120-157c-12 0-21 9-21 21 0 12 9 21 21 21 12 0 21-9 21-21 0-12-9-21-21-21z m-64-62c-24 0-43-19-43-43 0-23 19-43 43-43l128 0c23 0 43 20 43 43 0 24-20 43-43 43z m149-43c0-11-9-22-21-22l-128 0c-12 0-21 11-21 22 0 12 9 23 21 23l128 0c12 0 21-11 21-23z m-84 277l-21 0 0 44 21 0z m-192-148l41 0 0-24-41 0z m384-24l-44 0 0 24 44 0z m-44 201l16 15c10-9 21-19 30-30l-15-15c-10 11-20 21-31 30z m106-180c0-141-115-256-256-256-141 0-256 115-256 256 0 141 115 256 256 256 48 0 92-13 130-36l-15-16c-34 20-73 31-115 31-129 0-235-106-235-235 0-129 106-234 235-234 129 0 234 105 234 234 0 41-10 80-29 114l16 15c22-38 35-82 35-129z"/>
<glyph glyph-name="statistics" unicode="&#57401;" d="M512 384c0 47-39 85-86 85l-341 0c-47 0-85-38-85-85l0-255c0-47 38-86 85-86l341 0c47 0 86 39 86 86z m-17-256c0-35-29-64-65-64l-342 0c-35 0-64 29-64 64l0 257c0 35 29 64 64 64l342 0c36 0 65-29 65-64z m-151 234l86 0 0-86-24 0 0 51-128-129-63 64-57-56-15 15 72 72 64-64 113 113-48 0z m-244-184l15-15-21-21-15 15z"/>
<glyph glyph-name="strategy" unicode="&#57402;" d="M192 234c-35 0-65-50-65-85l0-62-20 0 0 62c0 47 38 106 85 106l107 0c35 0 65 29 65 64l0 148-58-49-14 16 81 70 82-70-14-16-56 49 0-148c0-47-39-85-86-85z m-149 258l256 0 0 20-256 0c-24 0-42-20-42-43l0-426c0-24 20-43 41-43l0 21c-10 0-21 10-21 22l0 426c0 11 10 23 22 23z m64-491l20 0 0 41-20 0z m7 332l35 35 35-35 16 15-36 35 36 35-16 16-35-36-35 36-15-16 35-35-35-35z m305-155l-35-35-35 35-15-15 35-35-35-35 15-15 35 35 35-35 15 15-35 35 35 35z m71 293l22 0c0 24-20 41-43 41l-19 0 0-20 19 0c12 0 21-11 21-21z m1-428c0-12-10-21-22-21l-276 0 0-21 276 0c23 0 42 18 42 42l0 298-20 0z m0 343l20 0 0 41-20 0z"/>
<glyph glyph-name="support" unicode="&#57403;" d="M402 176c-17 16-39 25-61 25-22 0-43-9-60-25 0 0-13-13-13-13-7-8-21-8-30 0l-76 77c-9 8-9 22 0 30l12 12c33 34 33 87 0 120 0 0-37 38-37 38-16 17-44 17-61 0l-26-27c-67-66-67-174 0-241l121-121c33-33 77-49 120-49 44 0 88 16 121 49l27 27c16 17 17 44 0 60z m-311 249c9 8 23 8 31 0l37-38c19-19 23-48 12-72l-95 95c0 0 15 15 15 15z m95-358l-121 120c-57 57-58 149-4 207l98-97-12-12c-16-16-17-44 0-60 0 0 76-77 76-77 17-16 44-16 61 0l11 12 98-97c-28-26-64-40-102-40-40 0-77 15-105 44z m238 26l-16-15-95 95c9 4 18 6 28 6 17 0 33-6 45-18 0 0 38-38 38-38 8-8 8-22 0-30z m23 331l-127 0 0 25 127 0z m-127-41l86 0 0-21-86 0z m170-41l22 0c0-24-19-45-43-45l-128 0-83-61 0 235c0 23 17 39 41 39l170 0c24 0 43-17 43-41l-22 0c0 10-9 21-21 21l-170 0c-12 0-20-8-20-19l0-192 55 42 135 0c12 0 21 8 21 21z m1 82l21 0 0-41-21 0z"/>
<glyph glyph-name="sweater" unicode="&#57404;" d="M341 512l-85-85-85 85c-95 0-171-76-171-171l0-320c0-11 10-21 21-21l86 0c11 0 21 10 21 21l0 22 256 0 0-22c0-11 9-21 21-21l86 0c11 0 21 10 21 21l0 320c0 95-77 171-171 171z m-213-448l0 171 128 0 0 21-128 0 0 43 256 0 0-235z m363-43l-86 0 0 342-21 0 0-43-256 0 0 43-21 0 0-342-86 0 0 320c0 80 63 145 141 149l79-78 15-15 94 93c78-4 141-69 141-149z m-192 235l42 0 0-21-42 0z"/>
<glyph glyph-name="t-shirt" unicode="&#57405;" d="M320 85l43 0 0-21-43 0z m192 299l0-64c0-12-10-21-21-21l-64 0 0-299-342 0 0 299-64 0c-11 0-21 9-21 21l0 64c0 71 57 128 128 128l43 0 0-21c0-47 38-86 85-86 47 0 85 39 85 86l0 21 43 0c71 0 128-57 128-128z m-21 0c0 59-48 107-107 107l-21 0 0 0c0-59-48-107-107-107-29 0-55 11-75 31-21 20-32 47-32 76l-21 0c-59 0-107-48-107-107l0-64 64 0 0 43 22 0 0-278 170 0 0-21-170 0 0-43 298 0 0 342 22 0 0-43 64 0z"/>
<glyph glyph-name="table" unicode="&#57406;" d="M448 402l0-20-45 0 0 20z m-86 0l-41 0 0-20 41 0z m-191 65l-42 0 0-20 42 0z m341-84l0-255c0-46-38-84-85-84l-340 0c-47 0-87 38-87 84l0 255c0 47 38 85 85 85l0-21c-34 0-61-29-61-64l0-42 464 0 0 42c0 35-26 64-61 64l-215 0 0 20 215 0c47 0 85-37 85-84z m-235-66l0-62 85 0 0 62z m0-147l85 0 0 65-85 0z m-21 65l-85 0 0-65 85 0z m-85 82l0-62 85 0 0 62z m-147-62l126 0 0 62-126 0z m0-85l126 0 0 65-126 0z m126-105l0 85-126 0 0-22c0-35 28-63 63-63z m106 0l0 85-85 0 0-85z m106 0l0 85-85 0 0-85z m126 85l-105 0 0-85 44 0c35 0 61 28 61 63z m0 85l-105 0 0-65 105 0z m0 82l-105 0 0-62 105 0z"/>
<glyph glyph-name="tax" unicode="&#57407;" d="M172 256l0-21c0-12 8-21 20-21l21 0c24 0 45-20 45-43l0-22c0-23-21-42-44-42l0-43-21 0 0 43c-24 0-41 19-41 42l0 21 20 0 0-21c0-11 8-21 20-21l21 0c12 0 21 10 21 21l0 22c0 12-9 23-21 23l-21 0c-24 0-40 17-40 41l0 21c0 24 17 43 41 43l0 42 21 0 0-42c23 0 42-20 42-44l-21 0c0 14-10 24-22 24l-21 0c-12 0-20-11-20-23z m304 169c-8 11-18 22-28 32l-15-15c10-10 20-21 27-33z m-87-302c-31-72-103-123-186-123-112 0-203 91-203 203 0 84 51 155 123 186 31 72 103 123 186 123 38 0 74-11 105-29l-16-16c-26 15-57 24-89 24-67 0-126-38-157-92 16 4 33 6 51 6 111 0 202-90 202-202 0-18-2-34-6-51 54 32 91 90 91 157 0 21-3 41-10 60l17 16c9-23 15-49 15-76 0-83-51-155-123-186z m-5 80c0 100-81 181-181 181-100 0-182-81-182-181 0-100 82-181 182-181 100 0 181 81 181 181z"/>
<glyph glyph-name="terminal" unicode="&#57408;" d="M406 447l41 0 0-21-41 0z m-234-361l0 83-20 0 0-83z m319 426l-470 0c-11 0-21-11-21-23l0-192c0-12 11-22 21-22l0 217 470 0 0-217c11 0 21 10 21 22l0 192c0 12-9 23-21 23z m-426-127l382 0 0-110-21 0 0 86-96 0c7-10 12-28 12-43 0-47-39-85-86-85-47 0-85 38-85 85 0 16 4 33 12 43l-97 0 0-320c0-12 9-20 21-20l299 0c11 0 20 8 20 20l0 107 21 0 0-107c0-24-18-41-41-41l-299 0c-24 0-42 17-42 41z m144-24c-10-10-17-27-17-43 0-35 29-64 64-64 36 0 64 29 64 64 0 17-6 33-16 43z m217-169l21 0 0 41-21 0z"/>
<glyph glyph-name="time" unicode="&#57409;" d="M363 447l-214 0 0-42 107-107 107 107z m-21-34l-85-85-86 85 0 13 171 0z m-193-348l214 0 0 41-107 106-107-106z m22 32l86 85 85-85 0-11-171 0z m192 395l-41 0 0 20 41 0z m64-130l-106-107 106-107 0-127 42 0 0-21-426 0 0 21 45 0 0 127 106 107-106 107 0 130-45 0 0 20 234 0 0-20-169 0 0-121 116-116-116-115 0-119 299 0 0 119-115 115 115 116 0 141 62 0 0-20-42 0z"/>
<glyph glyph-name="top" unicode="&#57410;" d="M427 384l0 107c0 11-10 21-22 21l-42 0c-12 0-22-10-22-21l0-128c0-47-38-86-85-86-47 0-85 39-85 86l0 128c0 11-10 21-22 21l-42 0c-12 0-22-10-22-21l0-107c0-47-38-85-85-85l43-299 426 0 43 299c-47 0-85 38-85 85z m24-363l-390 0-6 43 286 0 0 21-289 0-28 195c47 11 83 54 83 104l0 107 42 0 0-128c0-59 48-107 107-107 28 0 55 11 75 31 20 20 32 47 32 76l0 128 42 0 0-107c0-50 36-93 83-104z m-67 64l43 0 0-21-43 0z"/>
<glyph glyph-name="tracking" unicode="&#57411;" d="M377 369l15-15-136-135-92 93 15 15 77-78z m133-90c-3 38-15 74-34 106l-16-15c16-27 25-60 28-91l-62 0 0-24 64 0c0-120-94-222-214-233l0 62-21 0 0-63c0 0 0 0 0 0-129 0-234 107-234 234l66 0 0 24-65 0c11 117 111 211 233 211 0 0 0-1 0-1l0-62 21 0 0 61c34-3 66-13 93-29l15 16c-32 19-67 31-108 34l0 3-21 0 0-1c0 0 0 1 0 1-134 0-243-102-254-233l0 0 0-3c0-7-1-14-1-21 0-141 114-255 255-255 1 0 1 1 1 1l0 1 20 0 0-1c133 11 235 121 235 254l1 0 0 24z m-74 125l15 15c-9 11-19 21-30 31l-15-15c11-10 21-20 30-31z"/>
<glyph glyph-name="transportation" unicode="&#57412;" d="M326 113l15 15 32-32-15-15z m186 292l-98-83 96-250c3-8 2-17-4-23l-43-43c-8-8-22-8-30 0 0 0-43 43-43 43l15 15 43-43 43 43-94 243-126-108 38-39-15-15-40 40-41-36 0-106-42-43-171 171 43 42 106 0 36 42-179 178c-8 8-8 22 0 30l43 43c6 6 15 8 23 5l250-97 83 98 64 0c24 0 43-19 43-43z m-313-134l108 126-243 94-43-43z m292 198c0 12-10 22-22 22l-54 0-256-299-108 0-21-21 141-141 21 22 0 107 299 256z"/>
<glyph glyph-name="trousers" unicode="&#57413;" d="M427 448l0 43c0 11-10 21-22 21l-42 0 0-21 42 0 0-43-298 0 0 43 128 0 0 21-128 0c-12 0-22-10-22-21l0-43-85-405 171-43 85 277 85-277 171 43z m-18-21l14-64-18 0c-35 0-64 28-64 64z m-238 0c0-36-29-64-64-64l-18 0 14 64z m105-143c-2 9-11 15-20 15-9 0-18-6-20-15l-80-258-131 32 60 283 22 0c47 0 85 39 85 86l128 0c0-47 38-86 85-86l22 0 60-283-131-32z m44 207l-43 0 0 21 43 0z"/>
<glyph glyph-name="truck" unicode="&#57414;" d="M427 341l-107 0 0 150c0 11-10 21-21 21l-278 0c-11 0-21-10-21-21l0-406c0-23 19-42 43-42l4 0c8-25 32-43 60-43 27 0 51 18 60 43l178 0c9-25 32-43 60-43 28 0 51 18 60 43l4 0c24 0 43 19 43 42l0 150z m-11-21l69-85-165 0 0 85z m-309-299c-24 0-43 20-43 43 0 24 19 43 43 43 23 0 42-19 42-43 0-23-19-43-42-43z m298 0c-23 0-42 20-42 43 0 24 19 43 42 43 24 0 43-19 43-43 0-23-19-43-43-43z m86 64c0-11-10-21-22-21 0 35-28 64-64 64-35 0-64-29-64-64l-170 0c0 35-29 64-64 64-36 0-64-29-64-64-12 0-22 10-22 21l0 86 107 0 0 21-107 0 0 299 278 0 0-299-43 0 0-21 43 0c11 0 21 9 21 21l0 21 171 0z m-320 107l42 0 0-21-42 0z"/>
<glyph glyph-name="undershirt" unicode="&#57415;" d="M384 384l0 107c0 11-10 21-21 21l-43 0c-12 0-21-10-21-21l0-86c0-23-19-42-43-42-24 0-43 19-43 42l0 86c0 11-9 21-21 21l-43 0c-11 0-21-10-21-21l0-107c0-47-38-85-85-85l0-299 426 0 0 299c-47 0-85 38-85 85z m64-363l-384 0 0 43 256 0 0 21-256 0 0 43 384 0z m0 128l-384 0 0 131c49 9 85 53 85 104l0 107 43 0c0 0 0-86 0-86 0-34 29-64 64-64 35 0 64 29 64 64l0 86 43 0 0-107c0-51 36-95 85-104z m-43-85l-42 0 0 21 42 0z"/>
<glyph glyph-name="underwear" unicode="&#57416;" d="M491 469l-43 0 0-21 43 0 0-43-470 0 0 43 299 0 0 21-299 0c-11 0-21-9-21-21l0-192 31-9c73-21 130-79 148-153l13-51 128 0 13 51c18 74 75 132 148 153l31 9 0 192c0 12-10 21-21 21z m-384-234l0-1c-21 15-45 26-70 34l-16 4 0 112 150 0 0-85c0-36-29-64-64-64z m205-136l-9-35-94 0-9 35c-12 46-37 87-72 117 37 10 64 43 64 83l0 85 128 0 0-85c0-40 27-73 64-83-35-30-60-71-72-117z m179 173l-16-4c-25-8-49-19-70-34l0 1c-35 0-64 28-64 64l0 85 150 0z m-86 176l-42 0 0 21 42 0z"/>
<glyph glyph-name="unloader" unicode="&#57417;" d="M235 405l-43 0 0 22 43 0z m106-341l43 0c0 35 29 64 64 64 35 0 64-29 64-64 0-35-29-64-64-64-28 0-51 18-60 43l-47 0c-12 0-21 9-21 21l0 64-320 0 0 21 43 0 0 278 106 0 0-22-70 0 113-113 113 113-28 0 0 22 43 0 0 85 21 0 0-277 43 0 0 106c0 47 38 86 85 86l43 0 0-192c0-12-10-22-21-22l-150 0z m64 171l86 0 0 170-22 0c-35 0-64-28-64-64z m0-171c0-23 19-43 43-43 23 0 43 20 43 43 0 24-20 43-43 43-24 0-43-19-43-43z m-198 213l113-113 0 226z m-143 113l0-226 113 113z m15-241l226 0-113 113z"/>
<glyph glyph-name="ux" unicode="&#57418;" d="M448 128c-14 0-27-4-37-12l-50 50c27 25 44 61 44 101 0 34-12 66-33 90l39 39c10-7 23-12 37-12 35 0 64 29 64 64 0 35-29 64-64 64-35 0-64-29-64-64 0-14 4-26 12-37l-39-39c-25 21-56 33-90 33-40 0-76-17-101-44l-32 32c10 12 15 28 15 44 0 42-33 75-74 75-42 0-75-33-75-75 0-41 33-74 75-74 16 0 32 5 44 15l33-33c-15-22-24-49-24-78 0-35 13-66 33-90l-36-36c-8 5-18 8-29 8-29 0-53-23-53-53 0-29 24-53 53-53 29 0 53 24 53 53 0 11-3 21-9 30l36 36c25-21 56-34 91-34 29 0 55 9 78 24l51-51c-8-10-12-23-12-37 0-35 29-64 64-64 35 0 64 29 64 64 0 35-29 64-64 64z m-373 256c-30 0-54 24-54 53 0 30 24 54 54 54 29 0 53-24 53-54 0-29-24-53-53-53z m373 107c23 0 42-19 42-43 0-23-19-43-42-43-24 0-43 20-43 43 0 24 19 43 43 43z m-352-427c-18 0-32 15-32 32 0 18 14 32 32 32 18 0 32-14 32-32 0-17-14-32-32-32z m53 203c0 64 53 117 118 117 64 0 117-53 117-117 0-65-53-118-117-118-65 0-118 53-118 118z m299-245c-24 0-43 19-43 42 0 24 19 43 43 43 23 0 42-19 42-43 0-23-19-42-42-42z m-136 284l15-15-71-71-50 50 15 15 35-35z"/>
<glyph glyph-name="wallet" unicode="&#57419;" d="M491 299l-20 0 0 40c0 40-28 73-65 83 0 29-12 56-36 73-14 11-32 17-50 17l-235 0c-47 0-85-40-85-87l0-342c0-47 38-83 85-83l299 0c47 0 87 36 87 83l0 44 20 0c12 0 21 9 21 20l0 128c0 12-9 24-21 24z m-406 193l235 0c36 0 64-32 64-66l-363 0c0 34 29 66 64 66z m365-409c0-35-30-62-66-62l-299 0c-35 0-64 27-64 62l0 323 65 0 0-258 21 0 0 258 277 0c36 0 66-31 66-67l0-40-66 0c-35 0-64-31-64-66l0-43c0-35 29-63 64-63l66 0z m41 65l-107 0c-23 0-43 18-43 42l0 43c0 23 20 42 43 42l107 0z m-107 63c0 12 10 22 22 22 11 0 21-10 21-22 0-11-10-21-21-21-12 0-22 10-22 21z m-298-104l21 0 0-45-21 0z"/>
<glyph glyph-name="warehouse" unicode="&#57420;" d="M192 384l128 0 0-21-128 0z m299-107l21 0 0 43-21 0z m21 150l0-64-21 0 0 48-235 79-235-79 0-390 43 0 0 278c0 11 10 21 21 21l342 0c11 0 21-10 21-21l0-278 43 0 0 214 21 0 0-235-85 0 0 43-342 0 0-43-85 0 0 427 256 85z m-427-171l342 0 0 43-342 0z m0-64l342 0 0 43-342 0z m0-64l342 0 0 43-342 0z m0-64l342 0 0 43-342 0z"/>
</font>
</defs>
</svg>
